<?xml version="1.0" encoding="utf-8"?>
<!-- Generator: Adobe Illustrator 22.1.0, SVG Export Plug-In . SVG Version: 6.00 Build 0)  -->
<svg version="1.1" id="Layer_1" xmlns="http://www.w3.org/2000/svg" xmlns:xlink="http://www.w3.org/1999/xlink" x="0px" y="0px"
	 viewBox="0 0 135 135" style="enable-background:new 0 0 135 135;" xml:space="preserve">
<style type="text/css">
	.st0{clip-path:url(#SVGID_2_);}
	.st1{fill:#898989;}
</style>
<g transform="translate(-7372 5451)">
	<g>
		<g>
			<defs>
				<rect id="SVGID_1_" x="7373.6" y="-5449.3" width="131.7" height="131.6"/>
			</defs>
			<clipPath id="SVGID_2_">
				<use xlink:href="#SVGID_1_"  style="overflow:visible;"/>
			</clipPath>
			<g transform="translate(0 0)" class="st0">
				<g transform="translate(20.315 12.142)">
					<path class="st1" d="M7387.6-5446.7c5.5,0.1,9.8,4.7,9.7,10.1c0.1,5.5-4.2,10-9.7,10.1c-5.5-0.1-9.8-4.6-9.7-10.1
						C7377.9-5442,7382.2-5446.6,7387.6-5446.7"/>
				</g>
				<g transform="translate(12.6 28.971)">
					<path class="st1" d="M7400.5-5443l-5,3.8l-5-3.8c-1.5,0.2-13.2,3.2-14.2,12.2c-0.1,0.9,0.3,1.8,1,2.3c2.2,1.5,7.6,4.4,18.1,4.4
						s16-2.9,18.2-4.3c0.7-0.5,1.1-1.4,1-2.3C7413.5-5439.8,7401.9-5442.8,7400.5-5443"/>
				</g>
				<g transform="translate(77.779 45.921)">
					<path class="st1" d="M7397.6-5439.4c4.1,0.1,7.3,3.5,7.2,7.6c0.1,4.1-3.1,7.5-7.2,7.6c-4.1-0.1-7.3-3.5-7.2-7.6
						C7390.4-5435.8,7393.5-5439.2,7397.6-5439.4"/>
				</g>
				<g transform="translate(71.978 58.664)">
					<path class="st1" d="M7407.2-5436.6l-3.7,2.9l-3.7-2.9c-1,0.3-9.8,2.5-10.7,9.2c-0.1,0.7,0.1,1.4,0.7,1.8
						c1.6,1.2,5.7,3.2,13.6,3.2c7.9,0,12-2.2,13.6-3.2c0.6-0.4,0.9-1.1,0.7-1.8C7417-5434.3,7408.2-5436.5,7407.2-5436.6"/>
				</g>
				<g transform="translate(28.251 72.85)">
					<path class="st1" d="M7387-5433.5c4.1,0.1,7.3,3.5,7.2,7.6c0.1,4.1-3.1,7.5-7.2,7.6c-4.1-0.1-7.3-3.5-7.2-7.6
						C7379.6-5430,7382.9-5433.4,7387-5433.5"/>
				</g>
				<g transform="translate(22.45 85.472)">
					<path class="st1" d="M7396.5-5430.8l-3.7,2.9l-3.7-2.9c-1,0.3-9.8,2.5-10.6,9.2c-0.1,0.7,0.1,1.4,0.7,1.8
						c1.6,1.2,5.7,3.2,13.6,3.2s12-2.2,13.6-3.2c0.6-0.4,0.9-1.1,0.7-1.8C7406.4-5428.3,7397.5-5430.5,7396.5-5430.8"/>
				</g>
				<g transform="translate(0 -0.001)">
					<path class="st1" d="M7505-5336.5c-1.3-4.8-6.1-7.7-11-6.7l-4.8-12.1c12.4-7.6,16.2-23.8,8.6-36.2s-23.8-16.2-36.2-8.6
						c-3.3,2-6.2,4.8-8.3,8.1l-14.1-7.6c2.3-4.7,3.5-9.8,3.5-15.1c0-3.6-0.6-7.2-1.8-10.7l14.8-3.9c2.1,3.1,5.7,4.7,9.4,4.1
						c5.1-0.8,8.7-5.5,7.9-10.7c-0.6-5.2-5.4-8.8-10.5-8c-5,0.8-8.5,5.5-7.9,10.5l-15.1,4.1c-5.6-12.2-17.9-20-31.3-20
						c-19,0-34.5,15.5-34.5,34.5s15.5,34.5,34.5,34.5h0.9l1.2,10.5c-14.3,2.9-23.5,16.7-20.7,31c2.8,14.2,16.7,23.5,30.9,20.6
						c12.3-2.5,21.1-13.3,21.1-25.8c0-3.8-0.8-7.6-2.5-11.1l14.3-8c4.9,7.3,13,11.7,21.8,11.7c3.5,0,6.9-0.7,10.1-2l4.7,12
						c-4.1,3.2-4.8,9.1-1.6,13.2c3.2,4.1,9.1,4.8,13.2,1.6C7504.6-5329,7506-5332.9,7505-5336.5 M7378.5-5414.8
						c0-16.3,13.3-29.5,29.6-29.5c16.3,0,29.5,13.2,29.5,29.5c0,16.3-13.2,29.5-29.5,29.5
						C7391.9-5385.3,7378.5-5398.5,7378.5-5414.8 M7415.4-5322.7c-11.8,0-21.4-9.6-21.4-21.4c0-11.8,9.6-21.4,21.4-21.4
						c11.8,0,21.4,9.6,21.4,21.4C7436.6-5332.2,7427-5322.7,7415.4-5322.7 M7437-5358.6c-4.9-7.3-13-11.7-21.8-11.7h-1l-1.2-10.2
						c9.9-1.5,18.7-7.1,24.1-15.5l14.3,7.5c-3.2,6.9-3.1,14.9,0.1,21.8L7437-5358.6z M7454-5377.8c0-11.8,9.6-21.4,21.4-21.4
						c11.8,0,21.4,9.6,21.4,21.4c0,11.8-9.6,21.4-21.4,21.4l0,0C7463.6-5356.5,7454-5366,7454-5377.8"/>
				</g>
			</g>
		</g>
	</g>
</g>
</svg>
