<?xml version="1.0" encoding="utf-8"?>
<!-- Generator: Adobe Illustrator 22.1.0, SVG Export Plug-In . SVG Version: 6.00 Build 0)  -->
<svg version="1.1" id="Layer_1" xmlns="http://www.w3.org/2000/svg" xmlns:xlink="http://www.w3.org/1999/xlink" x="0px" y="0px"
	 viewBox="0 0 135 135" style="enable-background:new 0 0 135 135;" xml:space="preserve">
<style type="text/css">
	.st0{clip-path:url(#SVGID_2_);}
	.st1{fill:#898989;}
</style>
<g transform="translate(-7929 5532)">
	<g>
		<defs>
			<rect id="SVGID_1_" x="7937.4" y="-5531.1" width="118.1" height="133.2"/>
		</defs>
		<clipPath id="SVGID_2_">
			<use xlink:href="#SVGID_1_"  style="overflow:visible;"/>
		</clipPath>
		<g transform="translate(0 0)" class="st0">
			<g transform="translate(0.001 0.003)">
				<path class="st1" d="M8055.5-5500.4c-0.2-0.5-0.5-1-1-1.2l-7.5-3.8l5.1-9.8c0.3-0.5,0.3-1.1,0.1-1.6c-0.2-0.5-0.5-1-1-1.2
					l-14.3-7.3c-1-0.5-2.3-0.1-2.8,0.9l-5.8,11.2c-0.3,0.3-0.4,0.6-0.5,1l-20.9,40.5h-1.5l0.3-32.1c0-0.3-0.1-0.6-0.2-0.9l-8.6-17.9
					l-0.1-6.2c0-1.2-1-2.1-2.2-2.1c-1.2,0-2.1,1-2.1,2.2c0,0,0,0,0,0l0.1,4.5c-0.1,0.1-0.2,0.3-0.2,0.4l-8.3,20.1
					c-0.1,0.3-0.2,0.5-0.2,0.8v31.3h-5l-17.6-31.1c-0.2-0.3-0.4-0.5-0.6-0.7l-19.8-13.6c-0.7-0.5-1.6-0.5-2.3-0.1
					c-0.7,0.4-1.1,1.2-1,2.1l3.2,24.2c0,0.3,0.1,0.5,0.3,0.8l10.7,18.5c-0.6,0-1.1,0.3-1.5,0.7c-0.4,0.4-0.6,1-0.6,1.6l4.2,54h-1.6
					c-1.2,0-2.1,0.9-2.1,2.1c0,0,0,0,0,0v13.5c0,1.2,0.9,2.1,2.1,2.1c0,0,0,0,0,0h76.5c1.2,0,2.1-0.9,2.1-2.1v-13.5
					c0-1.2-0.9-2.1-2.1-2.1c0,0,0,0,0,0h-1.6l4.2-54c0.1-1.1-0.7-2.1-1.8-2.2l15.4-29.9l5.6,2.9l-13.3,25.8c-0.5,1-0.2,2.3,0.9,2.8
					c1,0.5,2.3,0.2,2.8-0.9c0,0,0,0,0,0l14.3-27.7C8055.6-5499.3,8055.6-5499.8,8055.5-5500.4 M8036.7-5520.7l10.6,5.4l-4.1,7.9
					l-10.6-5.4L8036.7-5520.7z M7996.7-5471.9l-0.4-27.5c0-0.1,0-0.3,0-0.4l5.1-0.3l-0.3,28.2H7996.7z M7994.4-5518.1l6.6,13.8
					l-12.6,0.6L7994.4-5518.1z M7988-5499.4l4.1-0.2c0,0.1,0,0.2,0,0.3l0.4,27.5h-4.5L7988-5499.4z M7956.5-5471.9l-9.9-17.1
					l4.4-2.8c0,0.2,0.1,0.4,0.2,0.5l11.6,19.4H7956.5z M7967.6-5471.9l-12.9-21.5c-0.1-0.2-0.3-0.4-0.5-0.5l5.3-3.4l14.4,25.5
					H7967.6z M7957.2-5500.9l-12.6,8.1l-2.4-18.4L7957.2-5500.9z M8026.6-5402.1h-72.2v-9.2h72.2V-5402.1z M7958-5415.6l-4.1-52
					h73.1l-4.1,52H7958z M8024.8-5471.9h-13.4l19.2-37.2l10.6,5.4L8024.8-5471.9z"/>
			</g>
		</g>
	</g>
</g>
</svg>
