<?xml version="1.0" encoding="utf-8"?>
<!-- Generator: Adobe Illustrator 22.1.0, SVG Export Plug-In . SVG Version: 6.00 Build 0)  -->
<svg version="1.1" id="Layer_1" xmlns="http://www.w3.org/2000/svg" xmlns:xlink="http://www.w3.org/1999/xlink" x="0px" y="0px"
	 viewBox="0 0 135 135" style="enable-background:new 0 0 135 135;" xml:space="preserve">
<style type="text/css">
	.st0{clip-path:url(#SVGID_2_);}
	.st1{fill:#898989;}
</style>
<g transform="translate(-7700 5543)">
	<g>
		<g>
			<defs>
				<rect id="SVGID_1_" x="7703.2" y="-5542" width="128.6" height="133"/>
			</defs>
			<clipPath id="SVGID_2_">
				<use xlink:href="#SVGID_1_"  style="overflow:visible;"/>
			</clipPath>
			<g transform="translate(0 0)" class="st0">
				<g transform="translate(-0.002 0.001)">
					<path class="st1" d="M7830.7-5448.1c1.1-3.6,1.1-7.5,0-11l-3.1-10c-1.3-4.1-4-7.7-7.7-9.9c0.5-4.3-0.6-8.8-3.2-12.3l-5.9-8.5
						c-2.4-3.5-6-5.9-10.3-7c-0.6-4.3-2.6-7.6-6.8-10.7l-8.2-6.1c-3.4-2.6-7.7-3.8-11.9-3.4c-2-3.8-5.4-6.6-9.6-8l-9.7-3.2
						c-4-1.4-8.4-1.1-12.3,0.6c-3.1-2.9-7.2-4.5-11.4-4.5h-10.2c-9.7,0.2-17.4,8.2-17.3,17.8v102.9c-0.1,6.6,5.2,12.2,11.9,12.3
						h104.8c6.6-0.1,12-5.5,11.9-12.3v-21.7C7831.8-5444.8,7831.4-5446.5,7830.7-5448.1 M7816.8-5475.6c3.1,1.6,5.5,4.4,6.5,7.9
						l3.1,10c0.5,1.6,0.7,3.3,0.6,5c-2-1.6-4.5-2.5-7.2-2.5h-76.4l63.6-21.2C7810.3-5477.4,7813.7-5477.2,7816.8-5475.6
						 M7798.6-5502.5c3.4,0.5,6.4,2.4,8.5,5.3l5.9,8.5c1.6,2.3,2.5,5,2.5,7.9c-3.2-0.9-6.7-0.8-9.9,0.3l-76.3,25.3h-0.1l59.7-44.9
						C7791.8-5502.2,7795.2-5503.1,7798.6-5502.5 M7772.8-5522.3L7772.8-5522.3c0.2,0,0.4-0.1,0.6-0.1c3.3-0.5,6.8,0.3,9.5,2.4
						l8.2,6.1c2.8,2.1,4.3,4,4.8,6.7c-3.4,0.1-6.8,1.3-9.5,3.4l-64.2,48.4c-0.1,0-0.2,0.1-0.2,0.1h-0.5l43.3-61.9
						C7766.8-5519.7,7769.6-5521.6,7772.8-5522.3 M7742.6-5532.7c0.2-0.1,0.3-0.2,0.5-0.3c0.1-0.1,0.2-0.1,0.3-0.2
						c2.9-1.5,6.4-1.8,9.6-0.7l9.7,3.2c2.6,0.8,4.9,2.5,6.4,4.8c-3.2,1.2-5.9,3.4-7.9,6.2l-45.1,64.4h-1.2l22-70
						C7737.8-5528.4,7739.8-5531,7742.6-5532.7 M7707.6-5524.2c-0.1-7.3,5.6-13.2,12.9-13.4h10.2c2.7,0,5.3,0.9,7.6,2.5
						c-2.6,2.2-4.6,5.1-5.6,8.4l-22.7,72.1c-0.1,0.2-0.1,0.4-0.1,0.6c-0.8,0.4-1.5,0.9-2.2,1.4
						C7707.6-5452.5,7707.6-5524.2,7707.6-5524.2z M7827.4-5421.3c0.1,4.2-3.2,7.7-7.5,7.8h-104.8c-4.2-0.1-7.6-3.6-7.5-7.8v-21.7
						c-0.1-4.2,3.2-7.8,7.5-7.9h104.8c4.2,0.1,7.6,3.6,7.5,7.9V-5421.3z"/>
				</g>
				<g transform="translate(10.739 80.33)">
					<path class="st1" d="M7713.6-5524c-7.2,2.2-9,8.4-7.7,13.2c1.2,4.5,5.2,7.8,10,8c0.9,0,1.8-0.1,2.7-0.4
						c3.6-0.8,6.5-3.6,7.5-7.3c1-4-0.1-8.4-3-11.4C7720.5-5524.3,7716.9-5525.1,7713.6-5524 M7721.8-5511.7
						c-0.5,2.1-2.1,3.6-4.2,4.1c-3.1,0.8-6.3-1-7.3-4.1c0-0.1-0.1-0.2-0.1-0.3c-0.7-2.7,0-6.3,4.6-7.8c0.6-0.2,1.2-0.3,1.8-0.3
						c1.2,0,2.4,0.5,3.2,1.3C7721.7-5516.8,7722.4-5514.1,7721.8-5511.7"/>
				</g>
			</g>
		</g>
	</g>
</g>
</svg>
