<?xml version="1.0" encoding="utf-8"?>
<!-- Generator: Adobe Illustrator 22.1.0, SVG Export Plug-In . SVG Version: 6.00 Build 0)  -->
<svg version="1.1" id="Layer_1" xmlns="http://www.w3.org/2000/svg" xmlns:xlink="http://www.w3.org/1999/xlink" x="0px" y="0px"
	 viewBox="0 0 135 135" style="enable-background:new 0 0 135 135;" xml:space="preserve">
<style type="text/css">
	.st0{fill:#898989;}
</style>
<g transform="translate(-7085 5453)">
	<g transform="translate(0.001 0.002)">
		<path class="st0" d="M7204.3-5451.9c-8,0-14.4,6.5-14.4,14.4c0,2.4,0.6,4.7,1.7,6.9l-23.7,23.7c-7-5.5-16.7-5.5-23.6,0l-18.6-18.5
			c0.9-1.5,1.4-3.1,1.4-4.8c0-5.4-4.3-9.7-9.7-9.7c-5.4,0-9.7,4.3-9.7,9.7c0,5.4,4.3,9.7,9.7,9.7l0,0c1.7,0,3.4-0.5,4.8-1.4
			l18.5,18.5c-5.5,7-5.5,16.7,0,23.6l-30.5,30.6c-2.6-2.4-6.2-3.7-9.7-3.7c-8,0-14.4,6.5-14.4,14.4c0,8,6.5,14.4,14.4,14.4
			s14.4-6.5,14.5-14.4c0-2.4-0.6-4.7-1.7-6.9l31-31c2.7,2.1,6,3.5,9.4,3.9v24.5c-7.9,1.3-13.2,8.8-11.8,16.7
			c1.4,7.9,8.8,13.2,16.7,11.8c7.9-1.4,13-8.8,11.7-16.7c-1-6.1-5.8-10.8-11.8-11.8v-24.5c3.4-0.4,6.7-1.8,9.4-3.9l18.5,18.5
			c-0.9,1.5-1.3,3.1-1.4,4.8c0,5.4,4.3,9.7,9.7,9.7s9.7-4.3,9.7-9.7c0-5.4-4.3-9.7-9.7-9.7c-1.7,0-3.4,0.5-4.8,1.4l-18.5-18.5
			c5.5-7,5.5-16.7,0-23.6l23.3-23.3c6,5.4,15,4.9,20.5-1c5.4-6,4.9-15-1-20.5C7211.4-5450.5,7208-5452,7204.3-5451.9"/>
	</g>
</g>
</svg>
