<?xml version="1.0" encoding="utf-8"?>
<!-- Generator: Adobe Illustrator 22.1.0, SVG Export Plug-In . SVG Version: 6.00 Build 0)  -->
<svg version="1.1" id="Layer_1" xmlns="http://www.w3.org/2000/svg" xmlns:xlink="http://www.w3.org/1999/xlink" x="0px" y="0px"
	 viewBox="0 0 135 135" style="enable-background:new 0 0 135 135;" xml:space="preserve">
<style type="text/css">
	.st0{clip-path:url(#SVGID_2_);}
	.st1{fill:#898989;}
</style>
<g transform="translate(-8139 5532)">
	<g>
		<defs>
			<rect id="SVGID_1_" x="8145.4" y="-5530.6" width="122.2" height="132.2"/>
		</defs>
		<clipPath id="SVGID_2_">
			<use xlink:href="#SVGID_1_"  style="overflow:visible;"/>
		</clipPath>
		<g transform="translate(0 0)" class="st0">
			<g transform="translate(25.916 7.253)">
				<path class="st1" d="M8150.6-5516.8c0.6,1.2,2.1,1.8,3.3,1.2c1.2-0.6,1.8-2.1,1.2-3.3l-4.9-10.2c-0.6-1.2-2.1-1.8-3.3-1.2
					c-1.2,0.6-1.8,2.1-1.2,3.3c0,0,0,0,0,0L8150.6-5516.8z"/>
			</g>
			<g transform="translate(0.529 93.34)">
				<path class="st1" d="M8153.8-5529.9l-7.7,7.7c-1,1-1,2.6,0,3.5c0.5,0.5,1.1,0.7,1.8,0.7c0.7,0,1.3-0.3,1.8-0.7l7.7-7.7
					c1-1,1-2.5,0-3.5c0,0,0,0,0,0C8156.4-5530.8,8154.8-5530.8,8153.8-5529.9"/>
			</g>
			<g transform="translate(0.529 26.19)">
				<path class="st1" d="M8153.8-5518.7c1,1,2.5,1,3.5,0c1-1,1-2.5,0-3.5l-7.7-7.7c-1-1-2.5-1-3.5,0c-1,1-1,2.5,0,3.5c0,0,0,0,0,0
					L8153.8-5518.7z"/>
			</g>
			<g transform="translate(108.98 26.189)">
				<path class="st1" d="M8147.9-5517.9c0.7,0,1.3-0.3,1.8-0.7l7.7-7.7c0.5-0.5,0.7-1.1,0.7-1.8c0-0.7-0.3-1.3-0.7-1.8
					c-1-1-2.5-1-3.5,0c0,0,0,0,0,0l-7.7,7.7c-1,1-1,2.5,0,3.5C8146.6-5518.2,8147.2-5517.9,8147.9-5517.9"/>
			</g>
			<g transform="translate(58.596 0.003)">
				<path class="st1" d="M8147.9-5515.6c1.4,0,2.5-1.1,2.5-2.5v-10c0-1.4-1.1-2.5-2.5-2.5c-1.4,0-2.5,1.1-2.5,2.5v10
					C8145.4-5516.8,8146.5-5515.7,8147.9-5515.6"/>
			</g>
			<g transform="translate(86.37 7.253)">
				<path class="st1" d="M8146.8-5515.6c0.3,0.2,0.7,0.2,1.1,0.2c1,0,1.8-0.6,2.2-1.4l4.9-10.2c0.6-1.2,0.1-2.7-1.2-3.3c0,0,0,0,0,0
					c-1.2-0.6-2.7-0.1-3.3,1.2l-4.9,10.2c-0.3,0.6-0.3,1.3-0.1,1.9C8145.8-5516.4,8146.2-5515.9,8146.8-5515.6"/>
			</g>
			<g transform="translate(58.594 117.227)">
				<path class="st1" d="M8147.9-5530.6c-1.4,0-2.5,1.1-2.5,2.5v10c0,1.4,1.1,2.5,2.5,2.5c1.4,0,2.5-1.1,2.5-2.5v-10
					C8150.4-5529.5,8149.3-5530.6,8147.9-5530.6"/>
			</g>
			<g transform="translate(50.3 55.229)">
				<path class="st1" d="M8156.2-5530.6c-6,0-10.8,4.8-10.8,10.8c0,6,4.8,10.8,10.8,10.8s10.8-4.8,10.8-10.8
					C8167-5525.8,8162.1-5530.6,8156.2-5530.6 M8162-5519.8c0,3.2-2.6,5.8-5.8,5.8c-3.2,0-5.8-2.6-5.8-5.8c0-3.2,2.6-5.8,5.8-5.8
					l0,0C8159.4-5525.6,8162-5523,8162-5519.8"/>
			</g>
			<g transform="translate(35.148 40.072)">
				<path class="st1" d="M8171.4-5530.6c-14.3,0-25.9,11.6-25.9,25.9c0,14.3,11.6,25.9,25.9,25.9c14.3,0,25.9-11.6,25.9-25.9
					c0,0,0,0,0,0C8197.3-5519,8185.7-5530.6,8171.4-5530.6 M8192.3-5504.6c0,11.6-9.4,21-21,21s-21-9.4-21-21s9.4-21,21-21
					c0,0,0,0,0,0C8182.9-5525.6,8192.3-5516.2,8192.3-5504.6"/>
			</g>
			<g transform="translate(0 26.854)">
				<path class="st1" d="M8267.1-5492.9c-5.2-6.9-11-13.2-17.6-18.8c-5.8-5.1-12.2-9.5-19.2-13c-7.4-3.8-15.6-5.8-23.9-6
					c-8.3,0.1-16.5,2.2-23.9,6c-6.9,3.5-13.3,7.8-19.2,13c-6.5,5.6-12.4,11.9-17.6,18.8c-0.6,0.9-0.6,2,0,2.9
					c5.2,6.9,11,13.2,17.6,18.8c5.8,5.1,12.2,9.5,19.2,13c7.4,3.8,15.6,5.8,23.9,6c8.3-0.1,16.5-2.2,23.9-6
					c6.9-3.5,13.4-7.8,19.2-13c6.5-5.6,12.4-11.9,17.6-18.8C8267.7-5490.8,8267.7-5492,8267.1-5492.9 M8262-5491.4
					c-4.7,6-10,11.5-15.7,16.5c-9.3,8.1-23.8,17.7-39.7,17.7s-30.4-9.6-39.7-17.7c-5.8-5-11-10.5-15.7-16.5
					c4.7-6,9.9-11.5,15.7-16.5c9.4-8.1,23.9-17.7,39.8-17.7c15.9,0,30.4,9.6,39.7,17.7C8252-5502.9,8257.3-5497.4,8262-5491.4"/>
			</g>
			<g transform="translate(25.916 109.734)">
				<path class="st1" d="M8153.9-5530.3c-1.2-0.6-2.7-0.1-3.3,1.2l-4.9,10.2c-0.6,1.2-0.1,2.7,1.2,3.3c1.2,0.6,2.7,0.1,3.3-1.2
					l4.9-10.2C8155.6-5528.3,8155.1-5529.7,8153.9-5530.3"/>
			</g>
			<g transform="translate(86.375 109.733)">
				<path class="st1" d="M8150.1-5529.2c-0.6-1.3-2-1.8-3.3-1.2c-1.3,0.6-1.8,2-1.2,3.3c0,0,0,0.1,0.1,0.1l4.9,10.2
					c0.4,0.9,1.3,1.4,2.2,1.4c0.4,0,0.7-0.1,1.1-0.2c1.2-0.6,1.8-2.1,1.2-3.3L8150.1-5529.2z"/>
			</g>
			<g transform="translate(108.976 93.34)">
				<path class="st1" d="M8149.7-5529.9c-1-0.9-2.5-0.9-3.5,0c-1,1-1,2.5,0,3.5c0,0,0,0,0,0l7.7,7.7c1,1,2.5,1,3.5,0
					c1-1,1-2.5,0-3.5L8149.7-5529.9z"/>
			</g>
		</g>
	</g>
</g>
</svg>
