<svg xmlns="http://www.w3.org/2000/svg" width="782.406" height="782.588" viewBox="0 0 782.406 782.588"><g transform="translate(-341.516 -133.774)"><path d="M577.974,352.167h75.8L509.617,144.774,365.463,352.167h79.746" transform="translate(163.786 0)" fill="none" stroke="#014543" stroke-linecap="round" stroke-linejoin="round" stroke-width="22"/><path d="M393.03,379.822V454.35L600.423,310.2,393.03,166.044v81" transform="translate(512.499 269.06)" fill="none" stroke="#014543" stroke-linecap="round" stroke-linejoin="round" stroke-width="22"/><g transform="translate(352.516 352.168)"><path d="M485.966,456.678H424.1a61.855,61.855,0,1,0,61.848,61.862V159.968" transform="translate(-229.482 -159.968)" fill="none" stroke="#014543" stroke-linecap="round" stroke-linejoin="round" stroke-width="22"/><line x1="163.769" transform="translate(389.245 296.71)" stroke-width="22" stroke="#014543" stroke-linecap="round" stroke-linejoin="round" fill="none"/><path d="M609,323.918H547.138c-107.494,0-194.622,87.128-194.622,194.622s87.128,194.622,194.622,194.622S741.76,626.02,741.76,518.54V159.968" transform="translate(-352.516 -159.968)" fill="none" stroke="#014543" stroke-linecap="round" stroke-linejoin="round" stroke-width="22"/><line x1="163.769" transform="translate(389.245 163.943)" stroke-width="22" stroke="#014543" stroke-linecap="round" stroke-linejoin="round" fill="none"/></g></g></svg>