<svg xmlns="http://www.w3.org/2000/svg" width="648.063" height="845.385" viewBox="0 0 648.063 845.385"><g transform="translate(-451.817 -28.154)"><path d="M566.1,271.409H484.256l157.3-232.255L803.309,271.409H721.637" transform="translate(285.571 0)" fill="none" stroke="#c9c9c9" stroke-linecap="round" stroke-linejoin="round" stroke-width="22"/><g transform="translate(462.817 271.405)"><path d="M767.029,55.373v97.019A48.068,48.068,0,0,1,719.1,200.321H469.171" transform="translate(-378.181 -55.373)" fill="none" stroke="#c9c9c9" stroke-linecap="round" stroke-linejoin="round" stroke-width="22"/><path d="M462.817,156.485h0c0-50.049,40.941-90.99,90.99-90.99" transform="translate(-462.817 79.453)" fill="none" stroke="#c9c9c9" stroke-linecap="round" stroke-linejoin="round" stroke-width="22"/></g><g transform="translate(618.362 271.405)"><path d="M480.033,344.581H686.9c50.049,0,90.99-58.927,90.99-108.976V55.373" transform="translate(-389.043 -55.373)" fill="none" stroke="#c9c9c9" stroke-linecap="round" stroke-linejoin="round" stroke-width="22"/><path d="M558.054,75.569h-33.48a51.035,51.035,0,0,0-50.894,50.879V377.494" transform="translate(-473.679 213.639)" fill="none" stroke="#c9c9c9" stroke-linecap="round" stroke-linejoin="round" stroke-width="22"/></g><line y2="355.201" transform="translate(462.821 507.338)" stroke-width="22" stroke="#c9c9c9" stroke-linecap="round" stroke-linejoin="round" fill="none"/></g></svg>