<svg xmlns="http://www.w3.org/2000/svg" viewBox="0 0 95.861 95.855"><defs><style>.a{fill:#898989;}</style></defs><path class="a" d="M47.931,0A47.927,47.927,0,1,0,95.861,47.931,47.926,47.926,0,0,0,47.931,0Zm44.22,47.931a44.652,44.652,0,0,1-.632,7.5A93.287,93.287,0,0,0,76.659,41.5a5.762,5.762,0,0,0,.153-1.3h0a5.681,5.681,0,0,0-5.383-5.658,57.693,57.693,0,0,0-3.008-9.8c-.313-.766-.645-1.533-.99-2.3A5.656,5.656,0,0,0,69.725,17.9a6,6,0,0,0-.051-.76q3.582-1.312,7.465-2.414A44.125,44.125,0,0,1,92.151,47.931Zm-44.22,44.22A44.089,44.089,0,0,1,30.7,88.671a67.168,67.168,0,0,1-2.069-13.314,64.91,64.91,0,0,1,.083-8.576h.006a5.684,5.684,0,0,0,2.261-.473,59.365,59.365,0,0,0,10.734,8.9,73.645,73.645,0,0,0,11.06,5.888,6.037,6.037,0,0,0-.045.683,5.621,5.621,0,0,0,1.226,3.506q-2.759,3.448-5.99,6.877A.137.137,0,0,0,47.931,92.151ZM24.265,35.332A56.289,56.289,0,0,1,40.383,32.3a53.747,53.747,0,0,0-7.752,10.683A54.652,54.652,0,0,0,27.65,55.549a5.478,5.478,0,0,0-1.073.319c0-.006-.006-.006-.006-.013a52.238,52.238,0,0,1-5.894-14.036A5.685,5.685,0,0,0,24.393,36.5h0A5.505,5.505,0,0,0,24.265,35.332ZM56.232,87a5.625,5.625,0,0,0,2.152.428h0a5.679,5.679,0,0,0,4.757-2.6q3.094.92,6.379,1.692a43.93,43.93,0,0,1-17.49,5.434Q54.252,89.5,56.232,87ZM60.223,76.41A5.63,5.63,0,0,0,58.39,76.1h0a5.671,5.671,0,0,0-4.566,2.318,62.38,62.38,0,0,1-20.587-13.9,5.625,5.625,0,0,0,1.149-3.41h0a5.7,5.7,0,0,0-3.806-5.351A50.7,50.7,0,0,1,44.374,32.324c.549.026,1.1.057,1.66.1a52.426,52.426,0,0,1,19.827,5.722,5.626,5.626,0,0,0-.39,2.05h0A5.686,5.686,0,0,0,69.7,45.676C69.674,55.951,66.5,66.232,60.223,76.41Zm3.831-52.847a6.053,6.053,0,0,0,.69-.045A55.652,55.652,0,0,1,68.6,35.14a5.518,5.518,0,0,0-1.034.67,55.674,55.674,0,0,0-20.255-6.143A66.368,66.368,0,0,1,59.68,21.494,5.7,5.7,0,0,0,64.054,23.563ZM55.389,4.336a44,44,0,0,1,19.036,8.186q-3.017.91-5.856,1.96a5.65,5.65,0,0,0-6.641-1.839c-.319-.473-.645-.945-.977-1.411A71.753,71.753,0,0,0,55.389,4.336Zm-4.5-.53A68.093,68.093,0,0,1,58.614,12.9c.332.473.677.964,1.015,1.475A5.648,5.648,0,0,0,58.39,17.9a5.722,5.722,0,0,0,.089,1,72.606,72.606,0,0,0-9.029,5.479,62.468,62.468,0,0,0-6.181,5.045A56.3,56.3,0,0,0,28.058,31.2q-2.567.651-5.115,1.545a5.649,5.649,0,0,0-4.08-1.9c-.153-2.043-.2-3.946-.172-5.677A68.452,68.452,0,0,1,19.77,13.831,44.045,44.045,0,0,1,47.931,3.7C48.92,3.7,49.91,3.742,50.887,3.806Zm-34.5,13.129a73.98,73.98,0,0,0-.562,8.091c-.032,2.19.045,4.361.211,6.494a5.688,5.688,0,0,0-2.982,4.987h0c0,.192.013.383.032.575A71.254,71.254,0,0,0,4,42.848,44.081,44.081,0,0,1,16.386,16.935ZM3.7,47.931q0-.6.019-1.207a65.65,65.65,0,0,1,10.389-6.935,5.705,5.705,0,0,0,3.646,2.3A55.312,55.312,0,0,0,24.1,57.324c.057.1.115.192.179.287a5.611,5.611,0,0,0-1.22,3.5h0a5.683,5.683,0,0,0,2.829,4.9,68.665,68.665,0,0,0-.115,9.6A72.25,72.25,0,0,0,27.35,87.074,44.2,44.2,0,0,1,3.7,47.931Zm69.3,36.424q-4.674-.977-8.959-2.248c.006-.115.013-.223.013-.338A5.626,5.626,0,0,0,62.611,78a72.729,72.729,0,0,0,5.536-10.773,57,57,0,0,0,4.425-21.545,5.676,5.676,0,0,0,2.708-1.628,92.408,92.408,0,0,1,15.479,14.91A44.289,44.289,0,0,1,73.007,84.354Z"/></svg>