<svg xmlns="http://www.w3.org/2000/svg" viewBox="0 0 95.61 100.367"><defs><style>.a{fill:#898989;}</style></defs><g transform="translate(-4827.113 -238.835)"><g transform="translate(4827.199 238.835)"><path class="a" d="M72.259,64.508a1,1,0,0,1,.384-1.153L87.759,51.7a3.406,3.406,0,0,0,1.153-3.843,3.363,3.363,0,0,0-3.2-2.37l-19.087-.576a1.041,1.041,0,0,1-.961-.7l-6.405-18a3.467,3.467,0,0,0-6.533,0l-6.469,18a.962.962,0,0,1-.961.7l-19.087.576a3.446,3.446,0,0,0-3.2,2.37A3.539,3.539,0,0,0,24.157,51.7L39.273,63.355a1.1,1.1,0,0,1,.384,1.153l-5.38,18.318a3.324,3.324,0,0,0,.512,3.01,3.489,3.489,0,0,0,2.818,1.409,3.023,3.023,0,0,0,1.922-.641l15.756-10.76a1.059,1.059,0,0,1,1.217,0l15.756,10.76a3.624,3.624,0,0,0,1.922.641A3.58,3.58,0,0,0,77,85.837a3.39,3.39,0,0,0,.512-3.01Zm2.882,19.92a1.091,1.091,0,0,1-1.473.256L57.911,73.923a3.542,3.542,0,0,0-1.922-.576,3.389,3.389,0,0,0-1.922.576L38.312,84.684a1.091,1.091,0,0,1-1.473-.256,1.012,1.012,0,0,1-.128-.9l5.38-18.318A3.448,3.448,0,0,0,40.874,61.5L25.63,49.776a.991.991,0,0,1-.384-1.153,1.048,1.048,0,0,1,.961-.769l19.151-.576A3.458,3.458,0,0,0,48.5,44.973l6.469-17.934a1.1,1.1,0,0,1,2.05,0l6.469,18a3.527,3.527,0,0,0,3.138,2.306l19.087.576a.921.921,0,0,1,.961.769.963.963,0,0,1-.384,1.153L71.17,61.5a3.448,3.448,0,0,0-1.217,3.715l5.38,18.318A.853.853,0,0,1,75.141,84.428Z" transform="translate(-8.239 -8.592)"/><path class="a" d="M73.917,11.721A1.216,1.216,0,0,0,75.134,10.5V1.217a1.217,1.217,0,1,0-2.434,0v9.351A1.164,1.164,0,0,0,73.917,11.721Z" transform="translate(-26.166)"/><path class="a" d="M.838,55.175l8.9,2.882a.812.812,0,0,0,.384.064,1.231,1.231,0,0,0,1.153-.833,1.246,1.246,0,0,0-.769-1.537l-8.9-2.882a1.246,1.246,0,0,0-1.537.769A1.246,1.246,0,0,0,.838,55.175Z" transform="translate(-0.036 -18.986)"/><path class="a" d="M35.148,126.675a1.215,1.215,0,0,0-1.665.256l-5.508,7.558a1.215,1.215,0,0,0,.256,1.665,1.343,1.343,0,0,0,.7.256,1.129,1.129,0,0,0,.961-.512L35.4,128.34A1.158,1.158,0,0,0,35.148,126.675Z" transform="translate(-10.008 -45.459)"/><path class="a" d="M111.2,126.931a1.191,1.191,0,1,0-1.922,1.409l5.508,7.558a1.216,1.216,0,0,0,.961.512.963.963,0,0,0,.7-.256,1.215,1.215,0,0,0,.256-1.665Z" transform="translate(-39.235 -45.459)"/><path class="a" d="M132.722,58.121a.812.812,0,0,0,.384-.064l8.9-2.882a1.215,1.215,0,0,0-.769-2.306l-8.9,2.882a1.219,1.219,0,0,0-.769,1.537A1.173,1.173,0,0,0,132.722,58.121Z" transform="translate(-47.31 -18.986)"/><path class="a" d="M103.031,30.055a1.343,1.343,0,0,0,.7.256,1.129,1.129,0,0,0,.961-.512l9.672-13.258a1.191,1.191,0,0,0-1.922-1.409l-9.672,13.258A1.215,1.215,0,0,0,103.031,30.055Z" transform="translate(-36.898 -5.267)"/><path class="a" d="M37.682,29.8a1.216,1.216,0,0,0,.961.512.963.963,0,0,0,.7-.256,1.215,1.215,0,0,0,.256-1.665L30,15.131a1.191,1.191,0,0,0-1.922,1.409Z" transform="translate(-10.043 -5.267)"/><path class="a" d="M17.9,92.938a1.219,1.219,0,0,0-1.537-.769L.738,97.229a1.216,1.216,0,0,0,.384,2.37.812.812,0,0,0,.384-.064l15.628-5.06A1.219,1.219,0,0,0,17.9,92.938Z" transform="translate(0 -33.114)"/><path class="a" d="M73.917,127.3a1.216,1.216,0,0,0-1.217,1.217v16.4a1.217,1.217,0,0,0,2.434,0v-16.4A1.259,1.259,0,0,0,73.917,127.3Z" transform="translate(-26.166 -45.764)"/><path class="a" d="M138.134,97.229l-15.628-5.06a1.215,1.215,0,0,0-.769,2.306l15.628,5.06a.813.813,0,0,0,.384.064,1.231,1.231,0,0,0,1.153-.833A1.193,1.193,0,0,0,138.134,97.229Z" transform="translate(-43.499 -33.114)"/></g></g></svg>