<svg xmlns="http://www.w3.org/2000/svg" viewBox="0 0 640.884 640.437"><defs><style>.a,.b{fill:#fbfbfb;}.a,.d{stroke:#f4c141;stroke-width:10px;}.c{fill:#fcc210;}.d{fill:#fff;}.e,.g{stroke:none;}.f{fill:none;}.g{fill:#f4c141;}</style></defs><g transform="translate(-261.034 -3837.708)"><g class="a" transform="translate(532.618 4220.506)"><ellipse class="e" cx="16.622" cy="16.622" rx="16.622" ry="16.622"/><ellipse class="f" cx="16.622" cy="16.622" rx="11.622" ry="11.622"/></g><g class="b" transform="translate(449.007 4268.86)"><path class="e" d="M 16.62151718139648 28.24302291870117 C 13.51729679107666 28.24302291870117 10.598876953125 27.0341739654541 8.403857231140137 24.83916282653809 C 6.208847045898438 22.6441535949707 4.999997138977051 19.72573280334473 4.999997138977051 16.62151336669922 C 4.999997138977051 13.51729297637939 6.208847045898438 10.59887313842773 8.403857231140137 8.403862953186035 C 10.598876953125 6.208853244781494 13.51729679107666 5.000003337860107 16.62151718139648 5.000003337860107 C 19.72573661804199 5.000003337860107 22.64415740966797 6.208853244781494 24.83917808532715 8.403862953186035 C 27.03418731689453 10.59887313842773 28.2430362701416 13.51729297637939 28.2430362701416 16.62151336669922 C 28.2430362701416 19.72573280334473 27.03418731689453 22.6441535949707 24.83917808532715 24.83916282653809 C 22.64415740966797 27.0341739654541 19.72573661804199 28.24302291870117 16.62151718139648 28.24302291870117 Z"/><path class="g" d="M 16.62151718139648 23.24302673339844 C 20.27263069152832 23.24302673339844 23.2430305480957 20.27262687683105 23.2430305480957 16.62151336669922 C 23.2430305480957 12.97039890289307 20.27263069152832 9.999999046325684 16.62151718139648 9.999999046325684 C 12.97040271759033 9.999999046325684 10.00000286102295 12.97039890289307 10.00000286102295 16.62151336669922 C 10.00000286102295 20.27262687683105 12.97040271759033 23.24302673339844 16.62151718139648 23.24302673339844 M 16.62151718139648 33.24302673339844 C 7.441702842712402 33.24302673339844 2.895682200687588e-06 25.80132675170898 2.895682200687588e-06 16.62151336669922 C 2.895682200687588e-06 7.441699028015137 7.441702842712402 -9.190150649374118e-07 16.62151718139648 -9.190150649374118e-07 C 25.80133056640625 -9.190150649374118e-07 33.2430305480957 7.441699028015137 33.2430305480957 16.62151336669922 C 33.2430305480957 25.80132675170898 25.80133056640625 33.24302673339844 16.62151718139648 33.24302673339844 Z"/></g><path class="c" d="M180.575,136.041a3.975,3.975,0,0,0-4.913,1.786c-4.243,8.932-10.272,14.291-17.641,15.631-8.486,1.563-15.855-2.233-17.194-3.35a4.075,4.075,0,0,0-5.359,0,3.159,3.159,0,0,0,0,4.913c2.68,2.456,10.272,6.029,19.2,5.806a33.316,33.316,0,0,0,4.689-.447h0c8.039,16.3.893,32.826-10.942,40.641-8.932,6.029-23,8.486-35.505-2.9a4.075,4.075,0,0,0-5.359,0,3.5,3.5,0,0,0,0,4.913c7.592,6.7,16.525,10.049,25.68,9.825a36.77,36.77,0,0,0,19.651-6.476c14.068-9.6,23-29.03,13.622-48.457,5.583-2.68,11.612-7.816,16.078-17.418A3.642,3.642,0,0,0,180.575,136.041Z" transform="translate(392.414 4005.138)"/><path class="c" d="M470.882,120.088c-16.3-35.952-49.35-55.826-90.438-54.933h0c-42.874.893-72.127,14.961-102.273,58.282l-1.34-4.02c-3.8-9.6-10.049-15.631-18.534-17.194a31.907,31.907,0,0,0-1.117-14.515c-4.689-14.515-18.534-24.787-34.612-25.68a39.838,39.838,0,0,0-25.233,7.146c-18.534-8.932-33.5-7.369-42.874-4.466-11.165,3.573-20.321,10.942-25.233,20.321h-1.563c-27.466.67-49.35,21.661-48.68,47.117.223,6.476-.223,12.952,2.9,18.758a33.489,33.489,0,0,0-4.466,43.544c-6.253,6.922-7.592,15.631-7.369,24.787a34.364,34.364,0,0,0,1.563,9.379,44.87,44.87,0,0,0-13.175,59.846,48.32,48.32,0,0,0-8.932,28.806c.447,19.428,12.952,36.845,31.933,44.884.447,17.418,11.612,32.6,28.583,39.525a48.573,48.573,0,0,0-.223,5.583c.67,24.34,22.554,43.544,48.68,42.874a47.012,47.012,0,0,0,5.583-.447c9.825,10.272,23.894,15.855,38.632,15.631,15.408-.447,29.923-7.369,39.3-18.758h.893c22.554-.447,38.408-14.738,41.981-22.554,1.563-1.116,63.2-41.758,116.565-98.7C473.338,248.711,497.231,177.923,470.882,120.088ZM242.888,439.413h-2.456a3.379,3.379,0,0,0-3.126,1.563c-7.816,10.5-20.767,16.971-34.389,17.418a45.161,45.161,0,0,1-29.7-10.049,49.459,49.459,0,0,0,23.447-13.622c8.709-8.932,12.952-20.991,12.058-34.835,7.369-2.456,16.3-9.379,20.767-18.758,3.35-6.922,5.359-17.418-3.573-28.806l-.447-.447c6.922-9.379,6.253-21.884,5.583-24.787a3.833,3.833,0,0,0-4.466-2.68,3.467,3.467,0,0,0-2.9,4.019c.447,2.01,1.116,14.738-6.7,21.884-5.136,4.689-12.952,6.029-23.224,4.243a3.834,3.834,0,0,0-4.466,2.68,3.467,3.467,0,0,0,2.9,4.02,61.2,61.2,0,0,0,10.719.893c6.922-.223,12.505-2.01,17.194-5.359,6.253,8.486,4.689,16.3,2.233,21.214-4.243,8.709-13.4,14.738-18.311,15.408a3.681,3.681,0,0,0-3.35,3.8c1.34,13.175-2.01,24.117-10.049,32.6-8.486,8.932-20.1,12.282-25.457,12.505h-.67a37.739,37.739,0,0,1-6.7.67c-22.33.447-40.641-15.855-41.088-36.175a40.558,40.558,0,0,1,.67-7.146,3.537,3.537,0,0,0-2.456-3.8c-15.855-5.359-26.127-18.757-26.573-34.389v-1.786c.447-6.476,8.709-19.874,20.544-26.127a26.83,26.83,0,0,1,25.01-.893c-3.35,8.486-2.9,18.981,1.563,29.476a3.978,3.978,0,0,0,3.573,2.233,2.832,2.832,0,0,0,1.34-.223,3.156,3.156,0,0,0,2.01-4.466c-4.466-10.719-4.243-21.884,1.116-29.03,3.8-5.359,9.825-8.039,17.641-8.262a3.4,3.4,0,0,0,3.573-3.573,3.542,3.542,0,0,0-3.8-3.35c-10.049.223-18.311,4.243-23.447,11.389-10.719-4.689-21.884-4.466-32.156,1.117C93.051,334.46,84.788,346.518,82.109,355c-15.408-7.369-25.233-21.661-25.68-37.738a40.943,40.943,0,0,1,8.932-26.35h0c.447-.67,10.719-14.961,32.379-6.476a3.975,3.975,0,0,0,4.913-1.786c0-.223,7.592-14.515,21.214-17.641,7.816-1.786,16.525.67,25.68,7.146a3.8,3.8,0,0,0,5.136-.67c1.34-1.563.893-3.573-.67-4.913-7.369-5.359-14.738-8.262-21.884-8.932-2.01-9.156,1.563-20.1,9.155-26.8,7.146-6.253,16.748-8.039,26.8-4.689a3.634,3.634,0,0,0,4.689-2.01,3.411,3.411,0,0,0-2.233-4.466c-12.952-4.243-25.233-2.233-34.612,6.029-9.155,8.039-13.622,20.767-11.388,31.933-.893.223-1.786.223-2.456.447-12.952,2.9-21.214,13.4-24.563,18.534-17.418-5.583-29.03,1.117-34.612,6.029a37.214,37.214,0,0,1-4.019-16.078c-.223-13.4,6.476-25.9,18.311-33.719a20.631,20.631,0,0,1,14.961-.447c5.806,2.01,10.272,6.476,12.952,13.4a3.978,3.978,0,0,0,3.573,2.233,1.673,1.673,0,0,0,1.117-.223,3.411,3.411,0,0,0,2.233-4.466c-4.466-11.165-11.835-15.631-17.418-17.418a32.529,32.529,0,0,0-17.194-.67,30.158,30.158,0,0,1-.893-6.253c-.223-8.262,1.117-15.855,7.146-21.884a3.166,3.166,0,0,0,.223-4.466,27.107,27.107,0,0,1-6.253-16.525,26.675,26.675,0,0,1,7.146-18.758c6.476,7.816,26.127,24.117,55.156,11.612a24.615,24.615,0,0,0,17.641,6.922h.67c8.486-.223,16.3-3.8,20.991-9.825a33.313,33.313,0,0,0,12.505,2.01,58.74,58.74,0,0,0,17.641-3.573,3.411,3.411,0,0,0,2.233-4.466,3.894,3.894,0,0,0-4.913-2.01c-14.738,5.359-26.573,3.8-32.6-4.019-3.8-4.913-4.019-11.165-1.786-13.4a3.345,3.345,0,0,0-.447-4.913,3.857,3.857,0,0,0-5.359.447c-4.689,5.136-4.243,14.738,1.34,21.884a30.8,30.8,0,0,0,4.689,4.689c-3.35,4.019-9.155,6.476-15.185,6.476-5.806,0-10.719-2.233-13.622-6.253a3.83,3.83,0,0,0-4.689-1.117c-32.379,15.631-48.01-10.272-48.68-11.389h0a34.465,34.465,0,0,1-5.136-17.864c-.447-21.437,18.088-39.525,41.311-39.971h3.573c1.563,0,3.126-.67,3.573-2.01,4.019-8.709,11.835-15.408,21.884-18.534,8.262-2.68,21.884-4.019,38.855,4.913a4.14,4.14,0,0,0,4.243-.447,32.015,32.015,0,0,1,22.107-6.922c12.952.67,24.117,8.932,27.69,20.544a25.427,25.427,0,0,1,.223,14.738,3.555,3.555,0,0,0,.67,2.9,3.6,3.6,0,0,0,2.9,1.34c16.3.67,18.758,21.437,18.981,26.127L254.5,161.622a3.075,3.075,0,0,0,.447,4.02l16.525,16.971L255.616,205.39a3.024,3.024,0,0,0,0,3.8l17.195,23.447-16.078,28.36a3.444,3.444,0,0,0,.223,3.573l14.515,19.651L257.849,304.09a4.042,4.042,0,0,0-.223,3.573l14.961,25.457-13.845,21.437a3.164,3.164,0,0,0,.67,4.243l15.855,13.175-15.631,22.554a3.036,3.036,0,0,0,.223,3.8l17.194,22.107C277.277,424.675,264.1,438.966,242.888,439.413Zm153.187-118.8c-45.331,48.457-97.137,85.079-111.429,94.9l-15.631-20.1,15.855-23a3.452,3.452,0,0,0-.67-4.466L268.344,354.78l13.4-20.767a3.037,3.037,0,0,0,0-3.35l-14.961-25.457,13.845-20.1a3.366,3.366,0,0,0,0-3.8l-14.738-19.651,16.078-28.36a3.444,3.444,0,0,0-.223-3.573l-16.971-23.447,15.855-23a3.407,3.407,0,0,0-.447-4.243l-16.525-17.194c30.816-48.9,50.69-88.652,116.788-90.215h0c37.962-.893,68.331,17.641,83.516,50.69C495.668,192.438,444.532,268.808,396.075,320.615Z" transform="translate(322.063 3914.128)"/><path class="c" d="M302.027,532.122C145.937,532.122,19.1,405.062,19.1,249.2A282.314,282.314,0,0,1,92.344,59.164,3.635,3.635,0,1,1,97.7,64.076,275.01,275.01,0,0,0,26.469,249.2c0,152.07,123.711,275.781,275.781,275.781a274.858,274.858,0,0,0,181.1-67.884,3.645,3.645,0,1,1,4.689,5.583A283.582,283.582,0,0,1,302.027,532.122Z" transform="translate(284.585 3909.178)"/><path class="c" d="M99.558,105.388a3.358,3.358,0,0,1-2.456-.893L52.664,64.3a3.635,3.635,0,0,1,4.913-5.359l44.438,40.195a3.581,3.581,0,0,1,.223,5.136A4.639,4.639,0,0,1,99.558,105.388Z" transform="translate(324.488 3909.178)"/><path class="c" d="M455.338,490.652a4.682,4.682,0,0,1-2.456-.893l-92.448-83.516a3.635,3.635,0,1,1,4.913-5.359l89.768,81.06c4.689-5.359,9.156-10.719,13.175-16.3a287.04,287.04,0,0,0,27.02-43.991,271.968,271.968,0,0,0,28.136-121.7c0-152.07-123.711-275.781-275.781-275.781A276.725,276.725,0,0,0,69.022,89.821a3.645,3.645,0,1,1-4.689-5.583A283.316,283.316,0,0,1,247.889,16.8c156.09,0,282.927,127.06,282.927,282.927a280.671,280.671,0,0,1-29.03,124.827,290.759,290.759,0,0,1-27.69,45.107c-5.136,6.7-10.5,13.4-16.078,19.651a4.37,4.37,0,0,1-2.68,1.34Z" transform="translate(338.723 3858.423)"/><path class="c" d="M303.694,640.437h0a316.218,316.218,0,0,1-91.108-18.311,356.417,356.417,0,0,1-34.166-14.515,3.645,3.645,0,0,1,3.35-6.476,342.934,342.934,0,0,0,33.5,14.291,315.945,315.945,0,0,0,88.875,17.864,3.721,3.721,0,0,1,3.573,3.8A4.509,4.509,0,0,1,303.694,640.437Zm36.622-.223a3.485,3.485,0,0,1-3.573-3.35,3.9,3.9,0,0,1,.893-2.68,5.322,5.322,0,0,1,2.456-1.34,3.58,3.58,0,0,1,.447,7.146h0C340.539,640.214,340.539,640.214,340.316,640.214Zm89.768-18.758a3.354,3.354,0,0,1-3.35-2.456,6.373,6.373,0,0,1,0-2.9,4.382,4.382,0,0,1,2.01-2.01,340.418,340.418,0,0,0,33.272-14.515,305.754,305.754,0,0,0,73.914-52.253,3.635,3.635,0,0,1,4.913,5.359,320.05,320.05,0,0,1-75.7,53.37,308.854,308.854,0,0,1-34.166,14.738C430.977,621.456,430.531,621.456,430.084,621.456ZM104.506,555.8a4.683,4.683,0,0,1-2.456-.893,3.7,3.7,0,0,1-1.117-2.68,3.9,3.9,0,0,1,.893-2.68,3.792,3.792,0,0,1,5.136-.223,3.586,3.586,0,0,1,1.117,2.456,3.9,3.9,0,0,1-.893,2.68A2.72,2.72,0,0,1,104.506,555.8ZM79.273,529.231a3.931,3.931,0,0,1-2.9-1.34,319.238,319.238,0,0,1-49.35-78.6,309.427,309.427,0,0,1-12.952-34.835,4.355,4.355,0,0,1,.223-2.9,3.07,3.07,0,0,1,2.233-1.786,3.68,3.68,0,0,1,4.689,2.456,294.3,294.3,0,0,0,12.728,33.942,307.721,307.721,0,0,0,48.234,76.593,3.9,3.9,0,0,1,.893,2.68,3.086,3.086,0,0,1-1.34,2.456A2.8,2.8,0,0,1,79.273,529.231Zm484.57-2.01a3.358,3.358,0,0,1-2.456-.893,5.322,5.322,0,0,1-1.34-2.456,3.9,3.9,0,0,1,.893-2.68h0a3.645,3.645,0,0,1,5.583,4.689h0A3.49,3.49,0,0,1,563.844,527.221Zm48.01-77.933a3.511,3.511,0,0,1-3.573-2.233,3.312,3.312,0,0,1,0-2.9c4.689-11.165,8.932-22.554,12.505-34.166a311.343,311.343,0,0,0,12.952-89.545,3.573,3.573,0,0,1,7.146,0,318.056,318.056,0,0,1-13.4,91.778v.223a325.034,325.034,0,0,1-12.728,34.835A2.958,2.958,0,0,1,611.854,449.288ZM3.8,326.694h0A3.721,3.721,0,0,1,0,323.121a4.12,4.12,0,0,1,1.117-2.68,3.7,3.7,0,0,1,2.68-1.117h0A3.527,3.527,0,0,1,7.369,322.9,3.584,3.584,0,0,1,3.8,326.694Zm1.563-36.622H4.913a3.727,3.727,0,0,1-3.35-4.019,325.839,325.839,0,0,1,23-89.768,330.621,330.621,0,0,1,16.3-33.5,3.461,3.461,0,0,1,4.913-1.34,3.548,3.548,0,0,1,1.786,2.233,4.355,4.355,0,0,1-.223,2.9,294.33,294.33,0,0,0-16.078,32.6A311.594,311.594,0,0,0,8.709,286.946C8.932,288.732,7.369,290.072,5.359,290.072ZM631.728,263.5a3.621,3.621,0,0,1-3.573-2.9,326.445,326.445,0,0,0-8.932-35.282,310.955,310.955,0,0,0-12.729-33.278,314.954,314.954,0,0,0-27.019-48.228,3.686,3.686,0,0,1,6.029-4.243,316.671,316.671,0,0,1,40.641,83.293A292.526,292.526,0,0,1,635.3,258.81a3.654,3.654,0,0,1-.447,2.68,3.221,3.221,0,0,1-2.456,1.563C632.175,263.5,631.951,263.5,631.728,263.5ZM560.047,116.565a3.793,3.793,0,0,1-3.8-4.019,3.086,3.086,0,0,1,1.34-2.456,3.589,3.589,0,0,1,5.136.447h0a3.589,3.589,0,0,1-.447,5.136A3.412,3.412,0,0,1,560.047,116.565ZM100.487,95.8a3.812,3.812,0,0,1-3.8-3.8,4.639,4.639,0,0,1,1.117-2.68,3.632,3.632,0,1,1,5.136,5.136h0C102.5,95.574,101.6,95.8,100.487,95.8ZM128.4,71.9a3.6,3.6,0,0,1-2.9-1.34,3.088,3.088,0,0,1-.67-2.68,5.323,5.323,0,0,1,1.34-2.456,317.344,317.344,0,0,1,81.06-45.107h.223c11.389-4.243,23.447-8.039,35.282-11.165a3.683,3.683,0,0,1,1.786,7.146,297.168,297.168,0,0,0-34.612,10.942,309.767,309.767,0,0,0-79.273,43.991A3.772,3.772,0,0,1,128.4,71.9ZM490.823,56.5a3.6,3.6,0,0,1-2.01-.67A293.559,293.559,0,0,0,457.1,38.185h0a315.241,315.241,0,0,0-86.2-27.243A3.775,3.775,0,0,1,367.782,6.7a3.775,3.775,0,0,1,4.243-3.126A314.839,314.839,0,0,1,460.23,31.486h0a285.927,285.927,0,0,1,32.379,18.088,3.228,3.228,0,0,1,1.563,2.233,3.655,3.655,0,0,1-.447,2.68A2.8,2.8,0,0,1,490.823,56.5ZM334.733,7.369h0a3.453,3.453,0,0,1-3.573-3.8A3.721,3.721,0,0,1,334.956,0a3.586,3.586,0,0,1,2.456,1.117,2.872,2.872,0,0,1,.893,2.68A3.527,3.527,0,0,1,334.733,7.369Z" transform="translate(261.034 3837.708)"/><path class="c" d="M300.278,160.117a3.478,3.478,0,0,1-3.573-3.35c-4.466-52.923-38.185-74.584-68.331-77.487a3.7,3.7,0,0,1,.67-7.369c33.049,3.126,70.117,26.8,74.807,84.186a3.728,3.728,0,0,1-3.35,4.019Zm-118.8-69a3.254,3.254,0,0,1-2.9-1.563,3.635,3.635,0,0,1,.893-5.136c1.117-.67,2.233-1.563,3.35-2.233a3.717,3.717,0,0,1,4.02,6.253c-.893.67-2.01,1.34-2.9,2.01A5.09,5.09,0,0,1,181.48,91.116Zm16.3-8.262a3.827,3.827,0,0,1-3.573-2.456,3.741,3.741,0,0,1,2.233-4.689,71.715,71.715,0,0,1,16.971-3.573,3.7,3.7,0,1,1,.67,7.369,59.281,59.281,0,0,0-15.408,3.35Z" transform="translate(480.385 3926.352)"/><g class="d" transform="translate(479.228 4022.056)"><ellipse class="e" cx="16.622" cy="16.622" rx="16.622" ry="16.622"/><ellipse class="f" cx="16.622" cy="16.622" rx="11.622" ry="11.622"/></g><g class="d" transform="translate(524.559 4053.284)"><ellipse class="e" cx="16.622" cy="16.622" rx="16.622" ry="16.622"/><ellipse class="f" cx="16.622" cy="16.622" rx="11.622" ry="11.622"/></g><g class="a" transform="translate(473.184 4119.77)"><ellipse class="e" cx="16.622" cy="16.622" rx="16.622" ry="16.622"/><ellipse class="f" cx="16.622" cy="16.622" rx="11.622" ry="11.622"/></g><g class="a" transform="translate(482.25 4187.264)"><ellipse class="e" cx="16.622" cy="16.622" rx="16.622" ry="16.622"/><ellipse class="f" cx="16.622" cy="16.622" rx="11.622" ry="11.622"/></g><g class="a" transform="translate(406.697 4133.873)"><ellipse class="e" cx="16.622" cy="16.622" rx="16.622" ry="16.622"/><ellipse class="f" cx="16.622" cy="16.622" rx="11.622" ry="11.622"/></g></g></svg>