<svg xmlns="http://www.w3.org/2000/svg" xmlns:xlink="http://www.w3.org/1999/xlink" viewBox="0 0 596 559.152">
  <defs>
    <style>
      .cls-1, .cls-6 {
        fill: #5d5d5d;
      }

      .cls-2 {
        fill: #0f294b;
      }

      .cls-3 {
        fill: #d81c5c;
      }

      .cls-4 {
        fill: #fff;
      }

      .cls-5 {
        clip-path: url(#clip-path);
      }

      .cls-6 {
        font-size: 15px;
        font-family: CenturyGothic, Century Gothic;
      }

      .cls-7 {
        clip-path: url(#clip-path-2);
      }

      .cls-8 {
        clip-path: url(#clip-path-3);
      }

      .cls-9 {
        clip-path: url(#clip-path-4);
      }

      .cls-10 {
        clip-path: url(#clip-path-5);
      }
    </style>
    <clipPath id="clip-path">
      <path id="Path_10138" data-name="Path 10138" class="cls-1" d="M0,30.225H54.434V-24.209H0Z" transform="translate(0 24.209)"/>
    </clipPath>
    <clipPath id="clip-path-2">
      <path id="Path_495" data-name="Path 495" class="cls-1" d="M0,42.14H60.425V-23.227H0Z" transform="translate(0 23.227)"/>
    </clipPath>
    <clipPath id="clip-path-3">
      <path id="Path_497" data-name="Path 497" class="cls-1" d="M0,40.569H57.774V-24.552H0Z" transform="translate(0 24.552)"/>
    </clipPath>
    <clipPath id="clip-path-4">
      <path id="Path_500" data-name="Path 500" class="cls-1" d="M0,30.764H52.183V-23.227H0Z" transform="translate(0 23.227)"/>
    </clipPath>
    <clipPath id="clip-path-5">
      <path id="Path_508" data-name="Path 508" class="cls-1" d="M0,29.19H53.522V-24.323H0Z" transform="translate(0 24.323)"/>
    </clipPath>
  </defs>
  <g id="Group_11150" data-name="Group 11150" transform="translate(-930 -236.385)">
    <g id="Group_10712" data-name="Group 10712" transform="translate(1084.202 236.435)">
      <path id="Path_1" data-name="Path 1" class="cls-2" d="M20.066,86v4.492a10.552,10.552,0,0,0-6.888-2.7,8.806,8.806,0,0,0-6.589,2.7,10.15,10.15,0,0,0,0,13.777,8.806,8.806,0,0,0,6.589,2.7,12.871,12.871,0,0,0,3.594-.6,6.546,6.546,0,0,0,1.5-.9,7.941,7.941,0,0,0,1.8-1.5v4.792a13.912,13.912,0,0,1-6.888,1.8,12.009,12.009,0,0,1-9.284-3.893A12.009,12.009,0,0,1,0,97.377a13.048,13.048,0,0,1,3.294-8.685A13.239,13.239,0,0,1,13.477,83.9,17.005,17.005,0,0,1,20.066,86Z" transform="translate(0 167.475)"/>
      <path id="Path_2" data-name="Path 2" class="cls-2" d="M20.885,98.775l7.787,10.782H23.88L16.692,99.075h-.6v10.482H12.2V84.1h4.492q4.942,0,7.188,1.8a6.713,6.713,0,0,1,2.4,5.69,9.05,9.05,0,0,1-1.5,4.792A5.47,5.47,0,0,1,20.885,98.775ZM16.093,95.78h1.2c3.594,0,5.391-1.5,5.391-4.193s-1.8-3.893-5.391-3.893h-1.5V95.78Z" transform="translate(24.338 167.874)"/>
      <path id="Path_3" data-name="Path 3" class="cls-2" d="M37.276,87.494H27.093v6.289h9.883v3.594H27.093v8.685H37.276v3.594H23.2V84.2H37.276v3.294Z" transform="translate(46.283 168.074)"/>
      <path id="Path_4" data-name="Path 4" class="cls-3" d="M55.561,109.657,46.276,92.586l-9.584,17.071H32.2L46.276,84.2l13.777,25.457Z" transform="translate(64.237 168.074)"/>
      <path id="Path_5" data-name="Path 5" class="cls-2" d="M54.883,87.694v21.863H50.99V87.694H45V84.1H60.574v3.594Z" transform="translate(89.772 167.874)"/>
      <path id="Path_6" data-name="Path 6" class="cls-2" d="M59.593,84.1v25.457H55.7V84.1Z" transform="translate(111.118 167.874)"/>
      <path id="Path_7" data-name="Path 7" class="cls-2" d="M66.393,84.1l7.188,16.472L80.769,84.1h4.193L73.581,109.557,62.5,84.1Z" transform="translate(124.684 167.874)"/>
      <path id="Path_8" data-name="Path 8" class="cls-2" d="M89.376,87.494H79.193v6.289h9.883v3.594H79.193v8.685H89.376v3.594H75.3V84.2H89.376Z" transform="translate(150.219 168.074)"/>
      <g id="Group_1" data-name="Group 1" transform="translate(20.066 -0.05)">
        <path id="Path_9" data-name="Path 9" class="cls-2" d="M193.285,45.922,119.31,3.095c-7.188-4.193-18.868-4.193-25.756,0L19.578,45.922C12.39,50.115,6.7,60,6.7,68.384V153.74c0,5.99,2.995,12.579,7.188,17.67l.9.9a33.161,33.161,0,0,0,5.391,3.594c5.391,2.4,12.878,5.69,21.863,9.883s19.467,9.284,30.548,14.675c5.391,2.7,11.381,5.69,17.071,8.685,1.5.6,2.995,1.5,4.492,2.1l2.1,1.2,1.8.9a25.838,25.838,0,0,0,8.386,1.2,27.055,27.055,0,0,0,8.386-1.2l1.8-.9,2.1-1.2a30.224,30.224,0,0,1,4.492-2.1c5.69-2.995,11.381-5.69,17.071-8.685,5.391-2.7,10.782-5.391,16.173-7.787,5.091-2.4,9.883-4.792,14.376-6.888,8.985-4.193,16.472-7.487,21.863-9.883a23.537,23.537,0,0,0,5.391-3.594c.3-.3.6-.6.9-.6,4.193-4.792,7.487-11.68,7.487-17.67V68.384C206.163,60,200.473,50.115,193.285,45.922Z" transform="translate(-6.7 0.05)"/>
        <path id="Path_10" data-name="Path 10" class="cls-4" d="M123.029,38.267,108.953,52.044C99.968,42.76,89.785,37.968,78.1,37.968c-10.183,0-18.868,3.294-25.756,10.183S41.866,63.125,41.866,73.008A33.716,33.716,0,0,0,52.648,98.465,37.326,37.326,0,0,0,79.3,108.948a34.67,34.67,0,0,0,17.371-4.193c4.792-2.995,8.386-7.487,11.381-13.477H77.805V72.709h52.411V77.2a51.839,51.839,0,0,1-7.188,26.056c-4.792,8.086-10.782,14.376-18.269,18.569A52.891,52.891,0,0,1,78.4,128.415a58.85,58.85,0,0,1-29.051-7.188,49.784,49.784,0,0,1-20.066-20.066A57.335,57.335,0,0,1,21.8,73.008,51.468,51.468,0,0,1,35.577,37.069C46.359,24.79,60.435,18.8,77.805,18.8a65.464,65.464,0,0,1,25.457,5.091Q113.595,27.935,123.029,38.267Z" transform="translate(23.424 37.655)"/>
        <path id="Path_11" data-name="Path 11" class="cls-3" d="M195.485,56.8a8.288,8.288,0,0,1-1.2,2.1,19.781,19.781,0,0,1-5.091,4.492c-4.792,2.995-11.98,7.487-20.366,12.279-4.193,2.4-8.985,5.091-13.777,8.086-4.792,2.7-10.183,5.69-15.574,8.685s-11.081,5.99-16.772,9.284c-1.5.9-2.995,1.5-4.193,2.4l-2.7,1.2a10.639,10.639,0,0,1-2.7,1.2,34.369,34.369,0,0,1-11.081,1.8,35.74,35.74,0,0,1-11.081-1.8,10.638,10.638,0,0,1-2.7-1.2l-2.1-1.2c-1.5-.9-2.995-1.5-4.193-2.4C76.286,98.729,70.6,95.435,65.2,92.44c-10.782-5.99-20.965-11.68-29.35-16.772-8.685-4.792-15.873-8.985-20.665-12.279A27.682,27.682,0,0,1,10.1,58.9a8.288,8.288,0,0,1-1.2-2.1,18.338,18.338,0,0,1,1.5,1.8,33.161,33.161,0,0,0,5.391,3.594c5.391,2.4,12.878,5.69,21.863,9.883S57.119,81.358,68.2,86.749c5.391,2.7,11.381,5.69,17.071,8.685,1.5.6,2.995,1.5,4.492,2.1l2.1,1.2,1.8.9a25.839,25.839,0,0,0,8.386,1.2,27.055,27.055,0,0,0,8.386-1.2l1.8-.9,2.1-1.2a30.224,30.224,0,0,1,4.492-2.1c5.69-2.995,11.381-5.69,17.071-8.685,5.391-2.7,10.782-5.391,16.173-7.787,5.091-2.4,9.883-4.792,14.376-6.888,8.985-4.193,16.472-7.487,21.863-9.883a23.537,23.537,0,0,0,5.391-3.594A8.278,8.278,0,0,0,195.485,56.8Z" transform="translate(-2.311 113.462)"/>
      </g>
    </g>
    <g id="Group_11055" data-name="Group 11055" transform="translate(-0.115)">
      <g id="Group_11054" data-name="Group 11054" class="cls-5" transform="translate(1449.332 706.285)">
        <g id="Group_11053" data-name="Group 11053" transform="translate(0 0.001)">
          <path id="Path_10137" data-name="Path 10137" class="cls-1" d="M26.926,0a5.938,5.938,0,0,0-5.219,8.771L11.981,18.5a7.877,7.877,0,0,0-9.7,0l-7.591-7.586a3.87,3.87,0,0,0,.567-2A3.966,3.966,0,0,0-8.7,4.949a3.963,3.963,0,0,0-3.957,3.957A3.963,3.963,0,0,0-8.7,12.864a3.908,3.908,0,0,0,2-.56L.889,19.895a7.869,7.869,0,0,0,0,9.7L-11.647,42.125a5.9,5.9,0,0,0-3.982-1.547,5.943,5.943,0,0,0-5.938,5.938,5.942,5.942,0,0,0,5.938,5.934,5.947,5.947,0,0,0,5.941-5.934,5.894,5.894,0,0,0-.72-2.831l12.693-12.7a7.827,7.827,0,0,0,3.861,1.6V42.647a5.936,5.936,0,1,0,1.979,0V32.59a7.827,7.827,0,0,0,3.861-1.6l7.586,7.591a3.907,3.907,0,0,0-.56,2,3.957,3.957,0,1,0,3.957-3.957,3.879,3.879,0,0,0-2,.56L13.381,29.59a7.86,7.86,0,0,0,0-9.7l9.563-9.563A5.935,5.935,0,1,0,26.926,0" transform="translate(21.567)"/>
        </g>
      </g>
      <text id="Social" class="cls-6" transform="translate(1427.115 775.536)"><tspan x="27.423" y="15">Social</tspan></text>
    </g>
    <g id="Group_11059" data-name="Group 11059">
      <g id="Group_11049" data-name="Group 11049" transform="translate(948.288 695.404)">
        <g id="Group_318" data-name="Group 318" class="cls-7" transform="translate(0 0)">
          <g id="Group_305" data-name="Group 305" transform="translate(12.819 3.588)">
            <path id="Path_482" data-name="Path 482" class="cls-1" d="M1.639,4.388a1.232,1.232,0,0,0,2.22-1.067L1.439-1.721A1.234,1.234,0,0,0-.2-2.3,1.23,1.23,0,0,0-.781-.655Z" transform="translate(0.903 2.419)"/>
          </g>
          <g id="Group_306" data-name="Group 306" transform="translate(0.262 46.167)">
            <path id="Path_483" data-name="Path 483" class="cls-1" d="M2.68.225l-3.8,3.8a1.235,1.235,0,0,0,0,1.745,1.231,1.231,0,0,0,.87.357,1.224,1.224,0,0,0,.872-.36l3.8-3.8a1.231,1.231,0,0,0,0-1.742,1.263,1.263,0,0,0-1.742,0" transform="translate(1.477 0.124)"/>
          </g>
          <g id="Group_307" data-name="Group 307" transform="translate(0.262 12.954)">
            <path id="Path_484" data-name="Path 484" class="cls-1" d="M2.68,3.8A1.231,1.231,0,1,0,4.422,2.063l-3.8-3.8a1.237,1.237,0,0,0-1.742,0,1.231,1.231,0,0,0,0,1.742Z" transform="translate(1.477 2.095)"/>
          </g>
          <g id="Group_308" data-name="Group 308" transform="translate(53.903 12.953)">
            <path id="Path_485" data-name="Path 485" class="cls-1" d="M.793,4.035a1.236,1.236,0,0,0,.872-.36l3.8-3.8a1.213,1.213,0,0,0,.36-.87,1.213,1.213,0,0,0-.36-.87,1.231,1.231,0,0,0-1.742,0l-3.8,3.8a1.233,1.233,0,0,0,0,1.742,1.224,1.224,0,0,0,.87.36" transform="translate(0.437 2.224)"/>
          </g>
          <g id="Group_309" data-name="Group 309" transform="translate(28.982 0.002)">
            <path id="Path_486" data-name="Path 486" class="cls-1" d="M.793,4.761a1.233,1.233,0,0,0,1.233-1.23V-1.391A1.234,1.234,0,0,0,.793-2.624,1.232,1.232,0,0,0-.437-1.391V3.531a1.231,1.231,0,0,0,1.23,1.23" transform="translate(0.437 2.624)"/>
          </g>
          <g id="Group_310" data-name="Group 310" transform="translate(42.72 3.588)">
            <path id="Path_487" data-name="Path 487" class="cls-1" d="M.452,4.76a1.206,1.206,0,0,0,.532.121,1.241,1.241,0,0,0,1.112-.7L4.513-.86A1.23,1.23,0,0,0,3.936-2.5a1.236,1.236,0,0,0-1.644.577L-.125,3.117a1.212,1.212,0,0,0-.053.94,1.223,1.223,0,0,0,.63.7" transform="translate(0.249 2.624)"/>
          </g>
          <g id="Group_311" data-name="Group 311" transform="translate(28.981 57.982)">
            <path id="Path_488" data-name="Path 488" class="cls-1" d="M.793,0A1.231,1.231,0,0,0-.437,1.23V6.155a1.23,1.23,0,0,0,2.46,0V1.23A1.231,1.231,0,0,0,.793,0" transform="translate(0.437 0)"/>
          </g>
          <g id="Group_312" data-name="Group 312" transform="translate(24.879 27.317)">
            <path id="Path_489" data-name="Path 489" class="cls-1" d="M3.438,0A5.332,5.332,0,1,0,8.771,5.33,5.338,5.338,0,0,0,3.438,0M6.309,5.33A2.871,2.871,0,1,1,3.438,2.462,2.875,2.875,0,0,1,6.309,5.33" transform="translate(1.895)"/>
          </g>
          <g id="Group_313" data-name="Group 313" transform="translate(17.385 19.82)">
            <path id="Path_490" data-name="Path 490" class="cls-1" d="M8.269,0A12.829,12.829,0,1,0,21.1,12.827,12.843,12.843,0,0,0,8.269,0M18.634,12.827A10.365,10.365,0,1,1,8.269,2.462,10.378,10.378,0,0,1,18.634,12.827" transform="translate(4.558)"/>
          </g>
          <g id="Group_314" data-name="Group 314" transform="translate(0 13.282)">
            <path id="Path_491" data-name="Path 491" class="cls-1" d="M38.8,12.023A59.056,59.056,0,0,0,30.12,2.742a44.8,44.8,0,0,0-9.476-6.411A26.878,26.878,0,0,0,8.824-6.627,26.9,26.9,0,0,0-3-3.669a44.861,44.861,0,0,0-9.473,6.411,58.459,58.459,0,0,0-8.685,9.281,1.23,1.23,0,0,0,0,1.432,58.963,58.963,0,0,0,8.685,9.281A44.822,44.822,0,0,0-3,29.145,26.838,26.838,0,0,0,8.824,32.105a26.836,26.836,0,0,0,11.82-2.961,44.822,44.822,0,0,0,9.476-6.408A59.591,59.591,0,0,0,38.8,13.455a1.23,1.23,0,0,0,0-1.432m-2.547.715A59.292,59.292,0,0,1,28.479,20.9C23.858,24.89,16.7,29.643,8.824,29.643S-6.212,24.89-10.833,20.9a59.59,59.59,0,0,1-7.781-8.164A59.551,59.551,0,0,1-10.864,4.6C-6.238.6.933-4.165,8.824-4.165c7.874,0,15.034,4.753,19.655,8.741a59.694,59.694,0,0,1,7.779,8.161" transform="translate(21.389 6.627)"/>
          </g>
          <g id="Group_315" data-name="Group 315" transform="translate(12.818 54.276)">
            <path id="Path_492" data-name="Path 492" class="cls-1" d="M2.7.078A1.236,1.236,0,0,0,1.054.655L-1.366,5.7a1.237,1.237,0,0,0,.58,1.646,1.252,1.252,0,0,0,.532.118,1.241,1.241,0,0,0,1.112-.7l2.42-5.043A1.235,1.235,0,0,0,2.7.078" transform="translate(1.487 0.043)"/>
          </g>
          <g id="Group_316" data-name="Group 316" transform="translate(42.722 54.275)">
            <path id="Path_493" data-name="Path 493" class="cls-1" d="M1.509.451A1.232,1.232,0,0,0-.711,1.517L1.709,6.56a1.239,1.239,0,0,0,1.109.7,1.206,1.206,0,0,0,.532-.121,1.235,1.235,0,0,0,.58-1.644Z" transform="translate(0.832 0.248)"/>
          </g>
          <g id="Group_317" data-name="Group 317" transform="translate(53.901 46.167)">
            <path id="Path_494" data-name="Path 494" class="cls-1" d="M1.356.225a1.263,1.263,0,0,0-1.742,0,1.231,1.231,0,0,0,0,1.742l3.8,3.8A1.232,1.232,0,0,0,5.152,4.021Z" transform="translate(0.747 0.124)"/>
          </g>
        </g>
      </g>
      <text id="Strategy_" data-name="Strategy

" class="cls-6" transform="translate(930 775.536)"><tspan x="18.26" y="15">Strategy</tspan></text>
    </g>
    <g id="Group_11058" data-name="Group 11058" transform="translate(-1.844)">
      <g id="Group_11050" data-name="Group 11050" transform="translate(1067.984 695.404)">
        <g id="Group_321" data-name="Group 321" class="cls-8" transform="translate(0 0)">
          <g id="Group_320" data-name="Group 320" transform="translate(0 0.002)">
            <path id="Path_496" data-name="Path 496" class="cls-1" d="M35.961,9.354a1.028,1.028,0,0,0-.512-.6L31.773,6.874l2.469-4.782a1.024,1.024,0,0,0,.066-.79A1.036,1.036,0,0,0,33.8.7l-7.01-3.578a1.034,1.034,0,0,0-1.387.446L22.58,3.034a1.141,1.141,0,0,0-.162.223,1.149,1.149,0,0,0-.085.255L12.122,23.306h-.716l.167-15.691a1.089,1.089,0,0,0-.1-.456l-4.2-8.766L7.2-4.656A1.041,1.041,0,0,0,6.149-5.661,1.029,1.029,0,0,0,5.143-4.608l.05,2.2a1.069,1.069,0,0,0-.114.191L1,7.593a1.059,1.059,0,0,0-.077.4V23.306H-1.525L-10.14,8.073a1.062,1.062,0,0,0-.316-.345L-20.15,1.089a1.026,1.026,0,0,0-1.122-.027,1.029,1.029,0,0,0-.483,1.013l1.56,11.816a.976.976,0,0,0,.13.382l5.233,9.034a1.019,1.019,0,0,0-.735.329,1.018,1.018,0,0,0-.271.78l2.077,26.4h-.761a1.031,1.031,0,0,0-1.032,1.032v6.578a1.031,1.031,0,0,0,1.032,1.029H22.867A1.031,1.031,0,0,0,23.9,58.429V51.851a1.031,1.031,0,0,0-1.032-1.032h-.761l2.077-26.4a1.023,1.023,0,0,0-.894-1.1L30.829,8.707l2.758,1.408L27.073,22.725a1.03,1.03,0,1,0,1.83.947L35.9,10.142a1.018,1.018,0,0,0,.066-.788m-9.2-9.931,5.172,2.642-2,3.872L24.766,3.3ZM7.223,23.306,7.043,9.837a.878.878,0,0,0-.024-.2l2.472-.127-.146,13.8ZM6.1.708,9.326,7.45l-6.164.313ZM2.982,9.837l2.011-.1a.7.7,0,0,0-.011.13l.178,13.44H2.982ZM-12.45,23.306-17.3,14.938l2.13-1.377a1.114,1.114,0,0,0,.109.268l5.66,9.477Zm5.453,0-6.294-10.535a1,1,0,0,0-.236-.268l2.581-1.663L-3.9,23.306Zm-5.082-14.19-6.146,3.963L-19.407,4.1ZM21.835,57.4H-13.492V52.883H21.835Zm-33.526-6.578-2-25.452H22.039l-2,25.452ZM20.975,23.306H14.443L23.819,5.129l5.172,2.642Z" transform="translate(21.763 5.661)"/>
          </g>
        </g>
      </g>
      <text id="Design" class="cls-6" transform="translate(1047.844 775.536)"><tspan x="24.17" y="15">Design</tspan></text>
    </g>
    <g id="Group_11057" data-name="Group 11057" transform="translate(0.832)">
      <g id="Group_11051" data-name="Group 11051" transform="translate(1185.207 706.78)">
        <g id="Group_325" data-name="Group 325" class="cls-9" transform="translate(0 0)">
          <g id="Group_323" data-name="Group 323" transform="translate(-0.001 0.001)">
            <path id="Path_498" data-name="Path 498" class="cls-1" d="M29.477,21.712a7.38,7.38,0,0,0,.009-4.472l-1.272-4.052a7.12,7.12,0,0,0-3.119-4,7.1,7.1,0,0,0-1.3-4.993L21.374.748a6.962,6.962,0,0,0-4.156-2.82A6.131,6.131,0,0,0,14.474-6.4L11.148-8.9a6.8,6.8,0,0,0-4.8-1.355,6.772,6.772,0,0,0-3.9-3.238L-1.462-14.81a6.782,6.782,0,0,0-4.984.251,6.939,6.939,0,0,0-4.665-1.834h-4.112a7.151,7.151,0,0,0-7.032,7.25V32.621A4.916,4.916,0,0,0-17.418,37.6h42.51a4.914,4.914,0,0,0,4.835-4.977V23.814a5.063,5.063,0,0,0-.451-2.1M23.826,10.546A5.33,5.33,0,0,1,26.49,13.73l1.272,4.049a5.585,5.585,0,0,1,.246,2.064,4.721,4.721,0,0,0-2.915-1.007H-5.888l25.807-8.6a5.04,5.04,0,0,1,3.907.3M16.457-.377a5.148,5.148,0,0,1,3.436,2.162L22.31,5.229a5.394,5.394,0,0,1,1.025,3.194,6.789,6.789,0,0,0-3.989.1L-11.609,18.837h-.026L12.617.583a5.035,5.035,0,0,1,3.84-.96m-10.463-8L6-8.38c.072-.014.144-.028.216-.04a5.039,5.039,0,0,1,3.84.962l3.329,2.5a4.479,4.479,0,0,1,1.969,2.713A6.83,6.83,0,0,0,11.532-.861L-14.535,18.756a.754.754,0,0,0-.091.081h-.188l17.6-25.1a5.164,5.164,0,0,1,3.208-2.12M-6.272-12.613a.9.9,0,0,0,.2-.114c.046-.026.093-.051.139-.074a5.006,5.006,0,0,1,3.894-.3l3.912,1.316A5.055,5.055,0,0,1,4.5-9.817,6.992,6.992,0,0,0,1.306-7.295L-17.023,18.837h-.509L-8.608-9.608a5.345,5.345,0,0,1,2.336-3.006m-14.175,3.47a5.342,5.342,0,0,1,5.223-5.442h4.112a5.09,5.09,0,0,1,3.05,1.032,7.168,7.168,0,0,0-2.271,3.405l-9.179,29.258a.937.937,0,0,0-.04.237,4.685,4.685,0,0,0-.895.588ZM28.122,32.621a3.1,3.1,0,0,1-3.029,3.168h-42.51a3.1,3.1,0,0,1-3.029-3.168V23.814a3.105,3.105,0,0,1,3.029-3.171h42.51a3.105,3.105,0,0,1,3.029,3.171Z" transform="translate(22.255 16.393)"/>
          </g>
          <g id="Group_324" data-name="Group 324" transform="translate(5.311 39.732)">
            <path id="Path_499" data-name="Path 499" class="cls-1" d="M1.856.113A4.241,4.241,0,0,0-1.234,5.457,4.285,4.285,0,0,0,2.811,8.671a4.421,4.421,0,0,0,1.111-.144A4.068,4.068,0,0,0,6.946,5.58,4.85,4.85,0,0,0,5.71.968,3.76,3.76,0,0,0,1.856.113m3.343,5a2.248,2.248,0,0,1-1.725,1.66A2.394,2.394,0,0,1,.507,4.971,2.45,2.45,0,0,1,2.379,1.842a2.607,2.607,0,0,1,.748-.119,1.854,1.854,0,0,1,1.327.544A3.034,3.034,0,0,1,5.2,5.117" transform="translate(1.401 0.085)"/>
          </g>
        </g>
      </g>
      <text id="Production" class="cls-6" transform="translate(1162.168 775.536)"><tspan x="9.265" y="15">Production</tspan></text>
    </g>
    <g id="Group_11056" data-name="Group 11056" transform="translate(20.172)">
      <g id="Group_11052" data-name="Group 11052" transform="translate(1296.99 707.275)">
        <g id="Group_334" data-name="Group 334" class="cls-10" transform="translate(0 0)">
          <g id="Group_327" data-name="Group 327" transform="translate(10.048 6.005)">
            <path id="Path_501" data-name="Path 501" class="cls-1" d="M2.141,0A4.017,4.017,0,0,1,6.066,4.1a4.017,4.017,0,0,1-3.925,4.1A4.017,4.017,0,0,1-1.784,4.1,4.017,4.017,0,0,1,2.141,0" transform="translate(1.784)"/>
          </g>
          <g id="Group_328" data-name="Group 328" transform="translate(6.232 14.33)">
            <path id="Path_502" data-name="Path 502" class="cls-1" d="M5.358,0,3.336,1.547,1.314,0C.72.119-4.037,1.309-4.453,4.994a1.034,1.034,0,0,0,.416.953c.891.594,3.091,1.782,7.373,1.782s6.482-1.188,7.373-1.782a1.029,1.029,0,0,0,.416-.953C10.649,1.309,5.892.119,5.358,0" transform="translate(4.464)"/>
          </g>
          <g id="Group_329" data-name="Group 329" transform="translate(38.471 22.713)">
            <path id="Path_503" data-name="Path 503" class="cls-1" d="M1.589,0A3.006,3.006,0,0,1,4.5,3.091,3.008,3.008,0,0,1,1.589,6.184,3.008,3.008,0,0,1-1.324,3.091,3.006,3.006,0,0,1,1.589,0" transform="translate(1.324)"/>
          </g>
          <g id="Group_330" data-name="Group 330" transform="translate(35.601 29.016)">
            <path id="Path_504" data-name="Path 504" class="cls-1" d="M4,0,2.51,1.19,1.025,0C.609.119-2.959,1.01-3.316,3.747a.681.681,0,0,0,.3.713C-2.365,4.935-.7,5.766,2.51,5.766A9.993,9.993,0,0,0,8.041,4.46a.681.681,0,0,0,.3-.713C7.982.95,4.413.059,4,0" transform="translate(3.331)"/>
          </g>
          <g id="Group_331" data-name="Group 331" transform="translate(13.974 36.032)">
            <path id="Path_505" data-name="Path 505" class="cls-1" d="M1.589,0A3.006,3.006,0,0,1,4.5,3.091,3.008,3.008,0,0,1,1.589,6.184,3.008,3.008,0,0,1-1.324,3.091,3.006,3.006,0,0,1,1.589,0" transform="translate(1.324)"/>
          </g>
          <g id="Group_332" data-name="Group 332" transform="translate(11.104 42.275)">
            <path id="Path_506" data-name="Path 506" class="cls-1" d="M4,0,2.51,1.19,1.025,0C.609.119-2.959,1.01-3.316,3.747a.681.681,0,0,0,.3.713C-2.365,4.935-.7,5.766,2.51,5.766A9.993,9.993,0,0,0,8.041,4.46a.681.681,0,0,0,.3-.713C7.982,1.01,4.413.119,4,0" transform="translate(3.331)"/>
          </g>
          <g id="Group_333" data-name="Group 333" transform="translate(0 -0.001)">
            <path id="Path_507" data-name="Path 507" class="cls-1" d="M29.125,25.007a3.809,3.809,0,0,0-4.46-2.735L22.7,17.337A10.691,10.691,0,1,0,8.136,2.412L2.427-.68A14.041,14.041,0,0,0,3.855-6.8a13.313,13.313,0,0,0-.713-4.341l6-1.6a3.857,3.857,0,0,0,3.806,1.663,3.823,3.823,0,0,0,3.21-4.339,3.826,3.826,0,0,0-4.339-3.212,3.846,3.846,0,0,0-3.212,4.281L2.489-12.69a13.973,13.973,0,0,0-12.725-8.147A14.059,14.059,0,0,0-24.269-6.8,14.058,14.058,0,0,0-10.237,7.228h.356l.475,4.281a10.713,10.713,0,0,0-8.62,10.466,10.733,10.733,0,0,0,10.7,10.7,10.734,10.734,0,0,0,10.7-10.7,10.455,10.455,0,0,0-1.012-4.519L8.2,14.184a10.659,10.659,0,0,0,8.86,4.757,10.781,10.781,0,0,0,4.1-.832l1.9,4.875a3.83,3.83,0,1,0,6.066,2.022M-22.247-6.8a12.014,12.014,0,0,1,12.01-12.01A12.053,12.053,0,0,1,1.774-6.8a12.053,12.053,0,0,1-12.01,12.01A12.014,12.014,0,0,1-22.247-6.8M-7.324,30.654A8.689,8.689,0,0,1-16,21.975a8.729,8.729,0,0,1,8.679-8.682,8.731,8.731,0,0,1,8.682,8.682,8.729,8.729,0,0,1-8.682,8.679m8.86-14.626a10.665,10.665,0,0,0-8.86-4.757H-7.74l-.475-4.163A14.234,14.234,0,0,0,1.6.808L7.364,3.9a10.482,10.482,0,0,0,.059,8.86Zm6.9-7.788a8.682,8.682,0,1,1,8.682,8.682A8.692,8.692,0,0,1,8.433,8.24" transform="translate(24.269 20.837)"/>
          </g>
        </g>
      </g>
      <text id="Communications" class="cls-6" transform="translate(1259.828 775.536)"><tspan x="1.512" y="15">Communications</tspan></text>
    </g>
  </g>
</svg>
