<svg xmlns="http://www.w3.org/2000/svg" viewBox="0 0 41.718 41.467"><defs><style>.a{fill:#3da2db;}</style></defs><g transform="translate(0 -1.842)"><path class="a" d="M28.906,1.842c-7.076,0-12.812,4.54-12.812,10.139,0,3.336,2.045,6.287,5.187,8.135a10.147,10.147,0,0,1-2.654,5.038c3.341-.249,6.281-1.207,8.206-3.177a16.146,16.146,0,0,0,2.073.144c7.076,0,12.812-4.54,12.812-10.139S35.982,1.842,28.906,1.842ZM22.9,13.983a2,2,0,1,1,2-2A2,2,0,0,1,22.9,13.983Zm6.006,0a2,2,0,1,1,2-2A2,2,0,0,1,28.906,13.983Zm6.006,0a2,2,0,1,1,2-2A2,2,0,0,1,34.912,13.983ZM26.42,35.314c-4.062-3.264-5.2-1.66-7.041.183-1.287,1.287-4.543-1.4-7.354-4.213s-5.5-6.068-4.213-7.355c1.843-1.843,3.447-2.979.182-7.04s-5.44-.944-7.226.842c-2.061,2.06-.109,9.739,7.48,17.329s15.268,9.54,17.328,7.481C27.362,40.756,30.482,38.58,26.42,35.314ZM5.07,19.092l-.238.1c-.194.074-.425.158-.683.27a3.823,3.823,0,0,0-.378.2,2.135,2.135,0,0,0-.369.269,2.527,2.527,0,0,0-.334.365,2.61,2.61,0,0,0-.249.485,3.006,3.006,0,0,0-.165.57c-.039.2-.046.407-.07.609a7.269,7.269,0,0,0,.066,1.137,7.416,7.416,0,0,0,.148.827l.066.314-.169-.273a7.662,7.662,0,0,1-.427-.737,7.855,7.855,0,0,1-.494-1.15c-.055-.227-.13-.463-.172-.716a4.244,4.244,0,0,1-.058-.8,4.066,4.066,0,0,1,.1-.839,4.208,4.208,0,0,1,.3-.8,3.926,3.926,0,0,1,.429-.68,5.676,5.676,0,0,1,.464-.53c.3-.295.56-.51.712-.643.087-.073.122-.112.161-.146l.052-.049,1.393,2.179Zm20.906,20.7c-.137.17-.351.433-.642.732a5.9,5.9,0,0,1-.514.456,4.664,4.664,0,0,1-.643.432,4.126,4.126,0,0,1-.758.326,3.9,3.9,0,0,1-.808.167l-.4.029-.389-.021a4.658,4.658,0,0,1-.724-.11,6.525,6.525,0,0,1-.635-.185,4.862,4.862,0,0,1-.542-.217,6.573,6.573,0,0,1-.754-.381l-.278-.154.314.048a6.349,6.349,0,0,0,.824.1,4.35,4.35,0,0,0,.535.015,5.733,5.733,0,0,0,.585-.041,3.681,3.681,0,0,0,.59-.122l.284-.087.264-.123a2.764,2.764,0,0,0,1.3-1.428c.109-.256.186-.482.245-.659l.1-.292,2.256,1.263Z" transform="translate(0)"/></g></svg>