<svg xmlns="http://www.w3.org/2000/svg" viewBox="0 0 53 41.467"><defs><style>.a{fill:#3da2db;}</style></defs><g transform="translate(0.001 -66.585)"><path class="a" d="M44.713,90.049l8.161,16.764a.8.8,0,0,1-.775,1.24H.9a.8.8,0,0,1-.775-1.24L8.286,90.049a.945.945,0,0,1,.775-.485h7a.98.98,0,0,1,.648.3c.475.549.958,1.085,1.441,1.615.458.5.918,1.014,1.375,1.536h-8.3a.945.945,0,0,0-.775.485L5.036,104.6H47.962L42.556,93.5a.945.945,0,0,0-.775-.485H33.458c.457-.522.917-1.032,1.375-1.536.484-.532.97-1.067,1.446-1.616a.979.979,0,0,1,.647-.3h7.012A.945.945,0,0,1,44.713,90.049ZM38.5,78.592c0,9.16-7.626,10.878-11.212,19.681a.857.857,0,0,1-1.59,0c-3.235-7.937-9.755-10.114-11-17.184-1.228-6.961,3.591-13.78,10.628-14.445A12.009,12.009,0,0,1,38.5,78.592Zm-5.666,0a6.341,6.341,0,1,0-6.341,6.341A6.341,6.341,0,0,0,32.831,78.592Z" transform="translate(0)"/></g></svg>