<svg xmlns="http://www.w3.org/2000/svg" viewBox="0 0 80 92.85">
  <defs>
    <style>
      .cls-1 {
        fill: #fff;
      }

      .cls-2 {
        fill: #d81c5c;
      }

      .cls-3 {
        fill: #162f50;
      }
    </style>
  </defs>
  <g id="Group_11149" data-name="Group 11149" transform="translate(-125 -33)">
    <g id="Group_11148" data-name="Group 11148" transform="translate(125 33.05)">
      <path id="Path_1" data-name="Path 1" class="cls-1" d="M6.7,84.6v1.5a3.523,3.523,0,0,0-2.3-.9,2.94,2.94,0,0,0-2.2.9,3.389,3.389,0,0,0,0,4.6,2.94,2.94,0,0,0,2.2.9,4.3,4.3,0,0,0,1.2-.2,2.186,2.186,0,0,0,.5-.3,2.651,2.651,0,0,0,.6-.5v1.6a4.645,4.645,0,0,1-2.3.6,4.01,4.01,0,0,1-3.1-1.3A4.01,4.01,0,0,1,0,88.4a4.357,4.357,0,0,1,1.1-2.9,4.42,4.42,0,0,1,3.4-1.6A5.678,5.678,0,0,1,6.7,84.6Z"/>
      <path id="Path_2" data-name="Path 2" class="cls-1" d="M15.1,89l2.6,3.6H16.1l-2.4-3.5h-.2v3.5H12.2V84.1h1.5a3.845,3.845,0,0,1,2.4.6,2.241,2.241,0,0,1,.8,1.9,3.022,3.022,0,0,1-.5,1.6A1.826,1.826,0,0,1,15.1,89Zm-1.6-1h.4c1.2,0,1.8-.5,1.8-1.4s-.6-1.3-1.8-1.3h-.5V88Z"/>
      <path id="Path_3" data-name="Path 3" class="cls-1" d="M27.9,85.3H24.5v2.1h3.3v1.2H24.5v2.9h3.4v1.2H23.2V84.2h4.7v1.1Z"/>
      <path id="Path_4" data-name="Path 4" class="cls-2" d="M40,92.7,36.9,87l-3.2,5.7H32.2l4.7-8.5,4.6,8.5Z"/>
      <path id="Path_5" data-name="Path 5" class="cls-1" d="M48.3,85.3v7.3H47V85.3H45V84.1h5.2v1.2Z"/>
      <path id="Path_6" data-name="Path 6" class="cls-1" d="M57,84.1v8.5H55.7V84.1Z"/>
      <path id="Path_7" data-name="Path 7" class="cls-1" d="M63.8,84.1l2.4,5.5,2.4-5.5H70l-3.8,8.5-3.7-8.5Z"/>
      <path id="Path_8" data-name="Path 8" class="cls-1" d="M80,85.3H76.6v2.1h3.3v1.2H76.6v2.9H80v1.2H75.3V84.2H80Z"/>
      <g id="Group_1" data-name="Group 1">
        <path id="Path_9" data-name="Path 9" class="cls-1" d="M69,15.3,44.3,1a9.329,9.329,0,0,0-8.6,0L11,15.3a9.488,9.488,0,0,0-4.3,7.5V51.3a9.849,9.849,0,0,0,2.4,5.9l.3.3a11.073,11.073,0,0,0,1.8,1.2c1.8.8,4.3,1.9,7.3,3.3s6.5,3.1,10.2,4.9c1.8.9,3.8,1.9,5.7,2.9.5.2,1,.5,1.5.7l.7.4.6.3a8.627,8.627,0,0,0,2.8.4,9.034,9.034,0,0,0,2.8-.4l.6-.3.7-.4a10.092,10.092,0,0,1,1.5-.7c1.9-1,3.8-1.9,5.7-2.9,1.8-.9,3.6-1.8,5.4-2.6,1.7-.8,3.3-1.6,4.8-2.3,3-1.4,5.5-2.5,7.3-3.3a7.859,7.859,0,0,0,1.8-1.2c.1-.1.2-.2.3-.2a9.738,9.738,0,0,0,2.5-5.9V22.8A9.866,9.866,0,0,0,69,15.3Z"/>
        <path id="Path_10" data-name="Path 10" class="cls-3" d="M55.6,25.3l-4.7,4.6a13.965,13.965,0,0,0-10.3-4.7A11.683,11.683,0,0,0,32,28.6a11.255,11.255,0,0,0-3.5,8.3,11.258,11.258,0,0,0,3.6,8.5A12.463,12.463,0,0,0,41,48.9a11.576,11.576,0,0,0,5.8-1.4A10.662,10.662,0,0,0,50.6,43H40.5V36.8H58v1.5A17.309,17.309,0,0,1,55.6,47a16.515,16.515,0,0,1-6.1,6.2,17.66,17.66,0,0,1-8.8,2.2A19.65,19.65,0,0,1,31,53a16.623,16.623,0,0,1-6.7-6.7,19.144,19.144,0,0,1-2.5-9.4,17.185,17.185,0,0,1,4.6-12,17.832,17.832,0,0,1,14.1-6.1A21.858,21.858,0,0,1,49,20.5,17.932,17.932,0,0,1,55.6,25.3Z"/>
        <path id="Path_11" data-name="Path 11" class="cls-2" d="M71.2,56.8a2.767,2.767,0,0,1-.4.7A6.6,6.6,0,0,1,69.1,59c-1.6,1-4,2.5-6.8,4.1-1.4.8-3,1.7-4.6,2.7-1.6.9-3.4,1.9-5.2,2.9s-3.7,2-5.6,3.1c-.5.3-1,.5-1.4.8l-.9.4a3.552,3.552,0,0,1-.9.4A11.476,11.476,0,0,1,40,74a11.933,11.933,0,0,1-3.7-.6,3.552,3.552,0,0,1-.9-.4l-.7-.4c-.5-.3-1-.5-1.4-.8-1.9-1-3.8-2.1-5.6-3.1-3.6-2-7-3.9-9.8-5.6-2.9-1.6-5.3-3-6.9-4.1a9.243,9.243,0,0,1-1.7-1.5,2.767,2.767,0,0,1-.4-.7,6.123,6.123,0,0,1,.5.6,11.073,11.073,0,0,0,1.8,1.2c1.8.8,4.3,1.9,7.3,3.3S25,65,28.7,66.8c1.8.9,3.8,1.9,5.7,2.9.5.2,1,.5,1.5.7l.7.4.6.3a8.627,8.627,0,0,0,2.8.4,9.034,9.034,0,0,0,2.8-.4l.6-.3.7-.4a10.092,10.092,0,0,1,1.5-.7c1.9-1,3.8-1.9,5.7-2.9,1.8-.9,3.6-1.8,5.4-2.6,1.7-.8,3.3-1.6,4.8-2.3,3-1.4,5.5-2.5,7.3-3.3a7.859,7.859,0,0,0,1.8-1.2A2.764,2.764,0,0,0,71.2,56.8Z"/>
      </g>
    </g>
  </g>
</svg>
