<svg xmlns="http://www.w3.org/2000/svg" xmlns:xlink="http://www.w3.org/1999/xlink" viewBox="0 0 59.932 101.863"><defs><style>.a{fill:#fff;}.b{fill:#0f294b;}.c{fill:#d81c5c;}.d{filter:url(#a);}</style><filter id="a" x="0" y="0" width="59.932" height="101.863" filterUnits="userSpaceOnUse"><feOffset dx="3" input="SourceAlpha"/><feGaussianBlur stdDeviation="3" result="b"/><feFlood flood-opacity="0.059"/><feComposite operator="in" in2="b"/><feComposite in="SourceGraphic"/></filter></defs><g transform="translate(-212.034 -171)"><g class="d" transform="matrix(1, 0, 0, 1, 212.03, 171)"><path class="a" d="M43.932,41.932h0A24.031,24.031,0,0,1,19.971,17.971h0A18.024,18.024,0,0,0,2,0H85.863A18.024,18.024,0,0,0,67.893,17.971h0A24.031,24.031,0,0,1,43.932,41.932Z" transform="translate(6 94.86) rotate(-90)"/></g><path class="b" d="M3,0H15a0,0,0,0,1,0,0V3a0,0,0,0,1,0,0H0A0,0,0,0,1,0,3V3A3,3,0,0,1,3,0Z" transform="translate(232 215)"/><path class="c" d="M1.5,0H11a0,0,0,0,1,0,0V3a0,0,0,0,1,0,0H1.5A1.5,1.5,0,0,1,0,1.5v0A1.5,1.5,0,0,1,1.5,0Z" transform="translate(229 221)"/><rect class="c" width="4" height="3" transform="translate(243 221)"/><path class="b" d="M0,0H15a0,0,0,0,1,0,0V3a0,0,0,0,1,0,0H3A3,3,0,0,1,0,0V0A0,0,0,0,1,0,0Z" transform="translate(232 227)"/></g></svg>