<svg xmlns="http://www.w3.org/2000/svg" viewBox="0 0 18 15"><defs><style>.a{fill:#0f294b;}.b{fill:#d81c5c;}</style></defs><g transform="translate(11869.035 1667)"><path class="a" d="M3,0H15a0,0,0,0,1,0,0V3a0,0,0,0,1,0,0H0A0,0,0,0,1,0,3V3A3,3,0,0,1,3,0Z" transform="translate(-11866.035 -1667)"/><path class="b" d="M1.5,0H11a0,0,0,0,1,0,0V3a0,0,0,0,1,0,0H1.5A1.5,1.5,0,0,1,0,1.5v0A1.5,1.5,0,0,1,1.5,0Z" transform="translate(-11869.035 -1661)"/><rect class="b" width="4" height="3" transform="translate(-11855.035 -1661)"/><path class="a" d="M0,0H15a0,0,0,0,1,0,0V3a0,0,0,0,1,0,0H3A3,3,0,0,1,0,0V0A0,0,0,0,1,0,0Z" transform="translate(-11866.035 -1655)"/></g></svg>