<?xml version="1.0" encoding="utf-8"?>
<!-- Generator: Adobe Illustrator 22.1.0, SVG Export Plug-In . SVG Version: 6.00 Build 0)  -->
<svg version="1.1" id="Layer_1" xmlns="http://www.w3.org/2000/svg" xmlns:xlink="http://www.w3.org/1999/xlink" x="0px" y="0px"
	 viewBox="0 0 62.5 62.5" style="enable-background:new 0 0 62.5 62.5;" xml:space="preserve">
<style type="text/css">
	.st0{fill:#0E3656;}
	.st1{fill:#D92360;}
</style>
<g transform="translate(-843.001 1951.521) rotate(-90)">
	<g transform="translate(1889 843)">
		<path class="st0" d="M31.3,0C14,0,0,14,0,31.3s14,31.3,31.3,31.3s31.3-14,31.3-31.3l0,0C62.5,14,48.5,0,31.3,0z M31.3,56.7
			c-14,0-25.4-11.4-25.4-25.4S17.2,5.9,31.3,5.9s25.4,11.4,25.4,25.4C56.6,45.3,45.3,56.6,31.3,56.7z"/>
	</g>
	<g transform="translate(1912.674 860.217)">
		<g transform="translate(0)">
			<path class="st1" d="M4.9,0.8L4.9,0.8c-1.2-1.1-3-1.1-4.1,0.1s-1.1,3,0.1,4.1C0.9,5,0.9,5,1,5.1l0,0l9.4,8.6l-9.4,8.6l0,0
				c-0.6,0.5-1,1.3-1,2.2c0,1.6,1.3,2.9,2.9,2.9c0.7,0,1.5-0.3,2-0.8l0,0l11.7-10.7c1.2-1.1,1.3-3,0.2-4.1c-0.1-0.1-0.1-0.1-0.2-0.2
				L4.9,0.8z"/>
		</g>
	</g>
</g>
</svg>
