<svg xmlns="http://www.w3.org/2000/svg" width="235.329" height="235.331" viewBox="0 0 235.329 235.331"><g transform="translate(-3318.635 -2164.635)"><g transform="translate(-1404.502 1556.769)"><g transform="translate(4723.137 607.866)"><path d="M4723.137,725.531A117.665,117.665,0,1,0,4840.8,607.866h0C4775.768,608.242,4723.137,660.872,4723.137,725.531Zm213.15,0a95.485,95.485,0,1,1-95.484-95.486A95.62,95.62,0,0,1,4936.287,725.531Z" transform="translate(-4723.137 -607.866)" fill="#fff"/></g><g transform="translate(4787.812 688.164)"><path d="M4743.4,676.842h0a10.9,10.9,0,0,0,15.791,15.037l.376-.376h0l32.329-35.337,32.329,35.337h0a10.772,10.772,0,0,0,8.271,3.759,10.908,10.908,0,0,0,10.9-10.9,11.173,11.173,0,0,0-3.006-7.519h0l-40.225-43.984c-4.135-4.511-11.278-4.887-15.414-.752l-.751.752Z" transform="translate(-4740.341 -629.226)" fill="#d92360"/></g></g></g></svg>