<svg xmlns="http://www.w3.org/2000/svg" xmlns:xlink="http://www.w3.org/1999/xlink" width="2142.713" height="551.281" viewBox="0 0 2142.713 551.281">
  <defs>
    <clipPath id="clip-path">
      <rect id="Rectangle_34" data-name="Rectangle 34" width="2142.713" height="551.281" transform="translate(3719 507)" fill="#fff" stroke="#707070" stroke-width="1"/>
    </clipPath>
    <clipPath id="clip-path-2">
      <rect id="Rectangle_10" data-name="Rectangle 10" width="3359.067" height="2375.167"/>
    </clipPath>
  </defs>
  <g id="Group_2680" data-name="Group 2680" transform="translate(-6509 -264)">
    <g id="Mask_Group_1" data-name="Mask Group 1" transform="translate(2790 -243)" clip-path="url(#clip-path)">
      <g id="Group_2675" data-name="Group 2675" transform="translate(3110.758 -544.518)">
        <text id="Design" transform="translate(1136.132 1183.779)" fill="#fff" font-size="48" font-family="CenturyGothic-Bold, Century Gothic" font-weight="700"><tspan x="0" y="0">Design</tspan></text>
        <g id="Group_2647" data-name="Group 2647">
          <g id="Group_2646" data-name="Group 2646" clip-path="url(#clip-path-2)">
            <path id="Path_2713" data-name="Path 2713" d="M399.692,399.606H382.536l24.737-47.878,13.565,6.783ZM313.91,471.823l-5.187-66.631h93.762L397.3,471.823Zm87.777,17.156H309.122V477.01h92.565ZM312.713,362.5l-15.959,10.374-3.192-23.54Zm13.566,37.106-16.359-27.53c0-.4-.4-.4-.8-.8l6.783-4.389,18.353,32.717Zm-14.364,0-12.767-21.944,5.586-3.591c0,.4,0,.4.4.8l14.763,24.737h-7.98Zm40.3-35.51,5.187-.4v.4l.4,35.111h-5.586Zm8.379-23.939,8.379,17.555-16.359.8Zm2.793,59.449-.4-35.51v-.4l6.384-.4-.4,36.308Zm51.469-62.641,13.566,6.783-5.187,9.975-13.565-6.783ZM438.793,362.9a5.51,5.51,0,0,0-1.2-1.6l-9.576-4.788,6.384-12.369a1.812,1.812,0,0,0,0-1.995,5.513,5.513,0,0,0-1.2-1.6l-18.353-9.576c-1.2-.8-2.793,0-3.591,1.2l-7.581,14.364-.4.4c0,.4,0,.4-.4.8l-26.732,51.868h-1.995l.4-41.1a1.466,1.466,0,0,0-.4-1.2l-11.172-23.141v-7.98a2.793,2.793,0,0,0-5.586,0v5.586l-.4.4-10.773,25.535c0,.4-.4.8-.4,1.2v40.3h-6.384l-22.742-39.9c-.4-.4-.4-.8-.8-.8l-25.535-17.555a1.929,1.929,0,0,0-2.793,0,2.434,2.434,0,0,0-1.2,2.793l3.99,31.121a1.465,1.465,0,0,0,.4,1.2l13.566,23.54a2.727,2.727,0,0,0-2.793,2.793l5.586,69.424h-1.995a2.727,2.727,0,0,0-2.793,2.793v17.156a2.727,2.727,0,0,0,2.793,2.793h98.151a2.727,2.727,0,0,0,2.793-2.793V474.616a2.727,2.727,0,0,0-2.793-2.793h-1.995l5.586-69.424c0-.8,0-1.6-.8-1.995a3.024,3.024,0,0,0-1.6-.8l19.949-38.3,7.182,3.591L414.454,398.01c-.8,1.2,0,2.793,1.2,3.591a1.466,1.466,0,0,0,1.2.4,2.481,2.481,0,0,0,2.394-1.6l18.354-35.51c1.6-.4,1.6-1.2,1.2-1.995" transform="translate(855.919 966.922)" fill="#fff"/>
          </g>
        </g>
        <text id="Production" transform="translate(1552.71 1183.779)" fill="#fff" font-size="48" font-family="CenturyGothic-Bold, Century Gothic" font-weight="700"><tspan x="0" y="0">Production</tspan></text>
        <g id="Group_2650" data-name="Group 2650">
          <g id="Group_2648" data-name="Group 2648" clip-path="url(#clip-path-2)">
            <path id="Path_2714" data-name="Path 2714" d="M553.417,471.929a9.37,9.37,0,0,1-9.177,9.576H416.964a9.37,9.37,0,0,1-9.177-9.576V445.6a9.37,9.37,0,0,1,9.177-9.576H544.24a9.37,9.37,0,0,1,9.177,9.576ZM407.787,347.046c0-9.177,7.182-16.359,15.561-16.359h12.369a15.985,15.985,0,0,1,9.177,3.192,20.61,20.61,0,0,0-6.783,10.374L410.58,432.03v.8c-.8.4-1.995,1.2-2.793,1.6V347.046Zm42.293-10.374c.4,0,.4,0,.8-.4a.391.391,0,0,0,.4-.4,14.675,14.675,0,0,1,11.571-.8l11.571,3.99a17,17,0,0,1,7.98,5.985,19.94,19.94,0,0,0-9.576,7.581l-55.06,78.2h-1.6L442.9,345.849a18.645,18.645,0,0,1,7.182-9.177m36.707,12.768h.8c3.99-.8,7.98.4,11.57,2.793l9.975,7.581c3.591,2.793,5.187,4.788,5.985,7.98a21.3,21.3,0,0,0-11.571,3.99l-78.2,58.651-.4.4h-.4l52.666-75.009a15.318,15.318,0,0,1,9.576-6.384m31.52,23.939c3.99.8,7.98,2.793,10.374,6.384l7.182,10.374a17.2,17.2,0,0,1,3.192,9.576,20.43,20.43,0,0,0-11.97.4l-92.565,30.722h0l72.615-54.661a14.052,14.052,0,0,1,11.172-2.793M540.25,406.1a14.77,14.77,0,0,1,7.98,9.576l3.99,11.97a15.508,15.508,0,0,1,.8,5.985,13.943,13.943,0,0,0-8.778-3.192H451.276l77.4-25.934a16.648,16.648,0,0,1,11.571,1.6m17.156,33.515c1.2-4.389,1.6-9.177,0-13.565l-3.99-11.97a21.331,21.331,0,0,0-9.177-11.97,19.958,19.958,0,0,0-3.99-14.763l-7.182-10.374a21.681,21.681,0,0,0-12.369-8.379c-.8-5.187-3.192-9.177-8.379-12.768l-9.975-7.581a20.3,20.3,0,0,0-14.364-3.99,18.529,18.529,0,0,0-11.571-9.576l-11.571-3.99a20.872,20.872,0,0,0-14.762.8,20.662,20.662,0,0,0-13.965-5.586H423.746A21.373,21.373,0,0,0,402.6,347.445V472.328a14.4,14.4,0,0,0,14.364,14.763H544.24A14.648,14.648,0,0,0,558.6,472.328V445.995a15.191,15.191,0,0,0-1.2-6.384" transform="translate(1203.72 974.397)" fill="#fff"/>
          </g>
          <g id="Group_2649" data-name="Group 2649" clip-path="url(#clip-path-2)">
            <path id="Path_2715" data-name="Path 2715" d="M426.227,371.265a6.367,6.367,0,0,1-5.187,4.788c-4.788,1.2-7.98-1.995-8.778-5.586-.8-3.192,0-7.581,5.586-9.177a5.06,5.06,0,0,1,2.394-.4,5.122,5.122,0,0,1,3.99,1.6c1.995,1.995,2.793,5.586,1.995,8.778M416.252,356.1c-8.778,2.793-10.773,9.975-9.177,15.959,1.6,5.187,5.985,9.576,11.97,9.576a8.783,8.783,0,0,0,3.192-.4,12.756,12.756,0,0,0,9.177-8.778,14.968,14.968,0,0,0-3.591-13.965,11.987,11.987,0,0,0-11.571-2.394" transform="translate(1215.602 1063.091)" fill="#fff"/>
          </g>
        </g>
        <text id="Strategy" transform="translate(692.668 1183.779)" fill="#fff" font-size="48" font-family="CenturyGothic-Bold, Century Gothic" font-weight="700"><tspan x="0" y="0">Strategy</tspan></text>
        <g id="Group_2664" data-name="Group 2664">
          <g id="Group_2651" data-name="Group 2651" clip-path="url(#clip-path-2)">
            <path id="Path_2716" data-name="Path 2716" d="M194.293,344.865a2.671,2.671,0,0,0,2.793,1.6,1.466,1.466,0,0,0,1.2-.4,3.116,3.116,0,0,0,1.6-1.6,2.543,2.543,0,0,0,0-2.394L193.894,329.7a3.039,3.039,0,0,0-5.586,2.394Z" transform="translate(562.585 980.568)" fill="#fff"/>
          </g>
          <g id="Group_2652" data-name="Group 2652" clip-path="url(#clip-path-2)">
            <path id="Path_2717" data-name="Path 2717" d="M190.748,355.273l-9.576,9.576a3.131,3.131,0,0,0,0,4.389,2.893,2.893,0,0,0,3.99,0l9.576-9.576a3.131,3.131,0,0,0,0-4.389c-.8-1.2-2.793-1.2-3.99,0" transform="translate(538.998 1059.533)" fill="#fff"/>
          </g>
          <g id="Group_2653" data-name="Group 2653" clip-path="url(#clip-path-2)">
            <path id="Path_2718" data-name="Path 2718" d="M191.047,348.537a2.892,2.892,0,0,0,3.99,0,3.131,3.131,0,0,0,0-4.389l-9.576-9.576a3.1,3.1,0,0,0-4.389,4.389Z" transform="translate(538.699 997.643)" fill="#fff"/>
          </g>
          <g id="Group_2654" data-name="Group 2654" clip-path="url(#clip-path-2)">
            <path id="Path_2719" data-name="Path 2719" d="M216.692,349.136a3.047,3.047,0,0,0,1.995-.8l9.576-9.576a2.893,2.893,0,0,0,0-3.99,3.131,3.131,0,0,0-4.389,0l-9.576,9.576a2.893,2.893,0,0,0,0,3.99,5.67,5.67,0,0,0,2.394.8" transform="translate(638.336 998.241)" fill="#fff"/>
          </g>
          <g id="Group_2655" data-name="Group 2655" clip-path="url(#clip-path-2)">
            <path id="Path_2720" data-name="Path 2720" d="M201.292,344.352a3.147,3.147,0,0,0,3.192-3.192V328.792a3.192,3.192,0,0,0-6.384,0V341.16a2.936,2.936,0,0,0,3.192,3.192" transform="translate(592.292 973.5)" fill="#fff"/>
          </g>
          <g id="Group_2656" data-name="Group 2656" clip-path="url(#clip-path-2)">
            <path id="Path_2721" data-name="Path 2721" d="M208.52,345.99a1.466,1.466,0,0,0,1.2.4,3.359,3.359,0,0,0,2.793-1.6l5.985-12.369a3.039,3.039,0,0,0-5.586-2.394L206.924,342.4a2.544,2.544,0,0,0,0,2.394,7.449,7.449,0,0,0,1.6,1.2" transform="translate(617.781 981.039)" fill="#fff"/>
          </g>
          <g id="Group_2657" data-name="Group 2657" clip-path="url(#clip-path-2)">
            <path id="Path_2722" data-name="Path 2722" d="M201.292,361.7a3.147,3.147,0,0,0-3.192,3.192V377.26a3.192,3.192,0,0,0,6.384,0V364.892c-.4-1.995-1.6-3.192-3.192-3.192" transform="translate(592.292 1081.434)" fill="#fff"/>
          </g>
          <g id="Group_2658" data-name="Group 2658" clip-path="url(#clip-path-2)">
            <path id="Path_2723" data-name="Path 2723" d="M215.549,355.866a7.182,7.182,0,1,1-7.182-7.182,7.152,7.152,0,0,1,7.182,7.182M208.767,342.7a13.167,13.167,0,1,0,13.167,13.166A13.283,13.283,0,0,0,208.767,342.7" transform="translate(584.818 1024.627)" fill="#fff"/>
          </g>
          <g id="Group_2659" data-name="Group 2659" clip-path="url(#clip-path-2)">
            <path id="Path_2724" data-name="Path 2724" d="M248.354,369.919a25.535,25.535,0,1,1-25.535-25.535,25.456,25.456,0,0,1,25.535,25.535M222.819,338a31.919,31.919,0,1,0,31.919,31.919A32.013,32.013,0,0,0,222.819,338" transform="translate(570.765 1010.574)" fill="#fff"/>
          </g>
          <g id="Group_2660" data-name="Group 2660" clip-path="url(#clip-path-2)">
            <path id="Path_2725" data-name="Path 2725" d="M322.788,382.177a149.851,149.851,0,0,1-19.151,20.348c-11.571,9.975-29.126,21.545-48.676,21.545s-37.106-11.571-48.676-21.545c-9.576-8.379-16.358-16.358-19.151-20.348a131.654,131.654,0,0,1,19.151-19.949c11.571-9.975,29.126-21.545,48.676-21.545s37.106,11.571,48.676,21.545a156.242,156.242,0,0,1,19.151,19.949m6.384-1.995a162.031,162.031,0,0,0-21.545-23.141,106.7,106.7,0,0,0-23.54-15.959c-9.975-4.788-19.55-7.182-29.126-7.182s-19.151,2.394-29.126,7.182a116.867,116.867,0,0,0-23.54,15.959c-13.167,11.571-21.146,22.343-21.545,23.141a2.992,2.992,0,0,0,0,3.591,162.021,162.021,0,0,0,21.545,23.141,106.687,106.687,0,0,0,23.54,15.959c9.975,4.788,19.55,7.182,29.126,7.182s19.151-2.394,29.126-7.182a116.858,116.858,0,0,0,23.54-15.959c13.167-11.172,21.146-22.343,21.545-23.141a5.5,5.5,0,0,0,0-3.591" transform="translate(538.624 998.316)" fill="#fff"/>
          </g>
          <g id="Group_2661" data-name="Group 2661" clip-path="url(#clip-path-2)">
            <path id="Path_2726" data-name="Path 2726" d="M198.409,359.735a2.915,2.915,0,0,0-3.99,1.6L188.435,373.7a2.915,2.915,0,0,0,1.6,3.99c.4,0,.8.4,1.2.4a3.359,3.359,0,0,0,2.793-1.6l5.985-12.369c.4-1.995,0-3.591-1.6-4.389" transform="translate(562.458 1074.622)" fill="#fff"/>
          </g>
          <g id="Group_2662" data-name="Group 2662" clip-path="url(#clip-path-2)">
            <path id="Path_2727" data-name="Path 2727" d="M212.394,361.1a3.039,3.039,0,0,0-5.586,2.394l5.985,12.369a2.671,2.671,0,0,0,2.793,1.6,1.466,1.466,0,0,0,1.2-.4,3.268,3.268,0,0,0,1.6-3.99Z" transform="translate(617.897 1074.45)" fill="#fff"/>
          </g>
          <g id="Group_2663" data-name="Group 2663" clip-path="url(#clip-path-2)">
            <path id="Path_2728" data-name="Path 2728" d="M218.862,355.273a3.1,3.1,0,1,0-4.389,4.389l9.576,9.576a2.822,2.822,0,0,0,3.99-3.99Z" transform="translate(638.56 1059.533)" fill="#fff"/>
          </g>
        </g>
        <text id="Public" transform="translate(2074.231 1122.546)" fill="#fff" font-size="48" font-family="CenturyGothic-Bold, Century Gothic" font-weight="700"><tspan x="0" y="0">Public</tspan></text>
        <text id="Relations" transform="translate(2038.895 1183.779)" fill="#fff" font-size="48" font-family="CenturyGothic-Bold, Century Gothic" font-weight="700"><tspan x="0" y="0">Relations</tspan></text>
        <g id="Group_2672" data-name="Group 2672">
          <g id="Group_2665" data-name="Group 2665" clip-path="url(#clip-path-2)">
            <path id="Path_2729" data-name="Path 2729" d="M537.668,328.6c6.783,0,12.369,5.985,12.369,13.167s-5.586,13.166-12.369,13.166S525.3,348.948,525.3,341.766s5.586-13.167,12.368-13.167" transform="translate(1570.576 982.47)" fill="#fff"/>
          </g>
          <g id="Group_2666" data-name="Group 2666" clip-path="url(#clip-path-2)">
            <path id="Path_2730" data-name="Path 2730" d="M553.321,335.2l-6.384,4.788-6.384-4.788c-1.995.4-16.758,3.99-18.353,15.959a4.53,4.53,0,0,0,1.2,3.192c2.793,1.995,9.975,5.586,23.141,5.586s20.348-3.591,23.141-5.586c.8-.8,1.6-1.995,1.2-3.192-.8-11.97-15.959-15.561-17.556-15.959" transform="translate(1561.308 1002.203)" fill="#fff"/>
          </g>
          <g id="Group_2667" data-name="Group 2667" clip-path="url(#clip-path-2)">
            <path id="Path_2731" data-name="Path 2731" d="M556.977,341.9c5.187,0,9.177,4.389,9.177,9.975s-3.99,9.975-9.177,9.975-9.177-4.389-9.177-9.975,3.99-9.975,9.177-9.975" transform="translate(1637.848 1022.235)" fill="#fff"/>
          </g>
          <g id="Group_2668" data-name="Group 2668" clip-path="url(#clip-path-2)">
            <path id="Path_2732" data-name="Path 2732" d="M568.641,346.8l-4.788,3.591-4.788-3.591c-1.2.4-12.768,3.192-13.566,11.97a2.931,2.931,0,0,0,.8,2.394c1.995,1.6,7.182,3.99,17.555,3.99,9.975,0,15.561-2.793,17.555-3.99a1.776,1.776,0,0,0,.8-2.394c-.8-8.778-11.97-11.571-13.566-11.97" transform="translate(1630.971 1036.885)" fill="#fff"/>
          </g>
          <g id="Group_2669" data-name="Group 2669" clip-path="url(#clip-path-2)">
            <path id="Path_2733" data-name="Path 2733" d="M537.577,352.4c5.187,0,9.177,4.389,9.177,9.975s-3.99,9.975-9.177,9.975-9.177-4.389-9.177-9.975,3.99-9.975,9.177-9.975" transform="translate(1579.845 1053.628)" fill="#fff"/>
          </g>
          <g id="Group_2670" data-name="Group 2670" clip-path="url(#clip-path-2)">
            <path id="Path_2734" data-name="Path 2734" d="M549.241,357.4l-4.788,3.591-4.788-3.591c-1.2.4-12.768,3.192-13.566,11.97a2.932,2.932,0,0,0,.8,2.394c2,1.6,7.182,3.99,17.556,3.99,9.974,0,15.56-2.793,17.555-3.99a1.776,1.776,0,0,0,.8-2.394c-.8-8.778-12.369-11.571-13.566-11.97" transform="translate(1572.968 1068.578)" fill="#fff"/>
          </g>
          <g id="Group_2671" data-name="Group 2671" clip-path="url(#clip-path-2)">
            <path id="Path_2735" data-name="Path 2735" d="M620.638,415.966a27.53,27.53,0,1,1,27.53,27.53,27.585,27.585,0,0,1-27.53-27.53M599.092,440.7a33.381,33.381,0,0,0-27.929-15.161h-1.2l-1.995-13.167c13.167-1.995,23.939-9.576,31.121-19.949l18.353,9.975a30.857,30.857,0,0,0-3.192,13.566,34.417,34.417,0,0,0,3.192,14.363Zm-28.328,46.282a27.53,27.53,0,1,1,27.53-27.53,27.585,27.585,0,0,1-27.53,27.53m-47.081-118.5a37.9,37.9,0,1,1,37.9,37.9,37.887,37.887,0,0,1-37.9-37.9M686.071,469.031a12,12,0,0,0-13.965-8.778l-6.384-15.56a33.5,33.5,0,0,0,16.358-28.727,33.791,33.791,0,0,0-62.242-18.353l-17.954-9.975a45.338,45.338,0,0,0,4.389-19.55,37.279,37.279,0,0,0-2.394-13.566l19.151-5.187A12.32,12.32,0,0,0,635,354.522a11.906,11.906,0,1,0-3.591-23.54c-6.783.8-10.773,7.182-9.975,13.565l-19.55,5.187a44.284,44.284,0,1,0-40.3,62.641h1.2l1.6,13.566a33.863,33.863,0,1,0,40.7,33.116,34.419,34.419,0,0,0-3.192-14.363l18.353-10.374a33.381,33.381,0,0,0,27.929,15.161,31.293,31.293,0,0,0,13.166-2.793l5.985,15.561a12.7,12.7,0,0,0-4.389,12.767c1.6,6.384,8.379,9.975,14.762,8.379a11.2,11.2,0,0,0,8.379-14.363" transform="translate(1546.657 968.118)" fill="#fff"/>
          </g>
        </g>
        <text id="Social" transform="translate(2498.723 1183.779)" fill="#fff" font-size="48" font-family="CenturyGothic-Bold, Century Gothic" font-weight="700"><tspan x="0" y="0">Social</tspan></text>
        <g id="Group_2674" data-name="Group 2674">
          <g id="Group_2673" data-name="Group 2673" clip-path="url(#clip-path-2)">
            <path id="Path_2736" data-name="Path 2736" d="M773.819,324a18.564,18.564,0,0,0-18.353,18.353,17.087,17.087,0,0,0,2.394,8.778l-29.924,29.924a24,24,0,0,0-15.161-5.187,24.853,24.853,0,0,0-15.161,5.187l-23.54-23.54a11.708,11.708,0,0,0,1.6-6.384A12.368,12.368,0,1,0,663.3,363.5a16.729,16.729,0,0,0,6.384-1.6l23.54,23.54a24,24,0,0,0-5.187,15.161,25.758,25.758,0,0,0,5.187,15.161l-38.7,38.7a19.018,19.018,0,0,0-12.368-4.788,18.353,18.353,0,1,0,18.353,18.354,17.087,17.087,0,0,0-2.394-8.778l39.5-39.5a22.464,22.464,0,0,0,11.97,4.788v31.121a18.358,18.358,0,0,0-15.161,17.954,18.353,18.353,0,1,0,36.706,0,18.1,18.1,0,0,0-15.161-17.954V424.545c4.389-.4,8.379-2.394,11.969-4.788l23.54,23.54a11.708,11.708,0,0,0-1.6,6.384,12.368,12.368,0,1,0,12.369-12.369,13.219,13.219,0,0,0-5.985,1.6l-23.54-23.54a24,24,0,0,0,5.187-15.161,25.756,25.756,0,0,0-5.187-15.161l29.525-29.525a19.018,19.018,0,0,0,12.368,4.788,18.564,18.564,0,0,0,18.353-18.353c-.8-9.576-8.778-17.955-19.151-17.955" transform="translate(1865.078 968.716)" fill="#fff"/>
          </g>
        </g>
      </g>
    </g>
  </g>
</svg>
