<svg xmlns="http://www.w3.org/2000/svg" width="784.054" height="784.244" viewBox="0 0 784.054 784.244"><g transform="translate(-9704.891 -159.878)"><g transform="translate(2952.891 -41.122)"><g transform="translate(6752 201)"><path d="M374.838,460.6l-.445.257A11.565,11.565,0,1,0,386,480.863l.445-.257A11.565,11.565,0,1,0,374.838,460.6Z" transform="translate(153.676 167.938)" fill="#fff"/><path d="M552.55,148.15a296.042,296.042,0,0,0-542.335,71.4,296.094,296.094,0,0,0,391.854,353.12,11.566,11.566,0,1,0-8.3-21.592C303.523,585.764,205.826,570,132.834,515.215L143.2,461.122l4.993-1.622A36.027,36.027,0,0,0,171.3,414.161l-3.664-11.278a12.772,12.772,0,0,1,.012-7.975,35.983,35.983,0,0,0-27.289-46.531l-26.107-5.1-50.372-38.3A11.568,11.568,0,0,0,53.3,303.183l-29.491,9.58a272.665,272.665,0,0,1-.04-31.58c1.164,1.084,1.921,1.821,2.387,2.3a11.618,11.618,0,0,0,2.129,2.606c2.408,2.193,4.59,3.188,9.17,3.188,4.209,0,10.44-.84,20.73-2.36,9.758-1.442,19.464-3.068,19.56-3.084a11.566,11.566,0,0,0,7.645-17.921l-14.182-20.8,20.314-14.525a11.576,11.576,0,0,0,3.309-3.66l31.488-54.972,12.692-13.6a48.86,48.86,0,0,0,9.429-51.817A53.193,53.193,0,0,0,127.37,81.722a273.941,273.941,0,0,1,32.345-21.9,271.209,271.209,0,0,1,133.29-36.478L272.35,49.253,195.76,76.105a11.563,11.563,0,0,0-6.865,6.5L167.5,134.462a11.568,11.568,0,0,0,1.278,11.131l31.24,43.76c-4.474,4.081-8.83,10.027-14.031,17.408-2.281,3.238-4.435,6.295-5.923,8.01-1.294,1.492-2.59,2.95-3.873,4.392-6.72,7.56-13.666,15.377-18.6,25.82-10.852,22.972-8.66,49.671,5.72,69.679,13.9,19.346,36.828,29.18,61.295,26.3a90.054,90.054,0,0,0,11.3-2.278c9.916-2.452,13.058-2.7,16.239.279,1.548,1.449,1.69,1.723,1.659,6.638a44.959,44.959,0,0,0,1.032,11.462c1.726,7.108,6.191,12.02,9.776,15.967,1.782,1.961,3.626,3.988,4.194,5.35,3.607,8.646,2.036,13.433-1.405,23.924q-.442,1.346-.9,2.753c-5.229,16.188,2.06,32.245,8.491,46.412,2.089,4.6,4.061,8.942,5.353,12.78,10.4,30.859,18.195,37.927,24.453,40.773a24.108,24.108,0,0,0,10.095,2.142c16.674,0,34.073-15.482,42.066-25.3,5.019-6.162,6.255-12.334,7.159-16.84a18.439,18.439,0,0,1,1.479-5.168,30.246,30.246,0,0,1,3.794-4.878c3.1-3.492,6.96-7.838,9.461-15.713,1.9-5.982,3.279-7.45,7.851-12.317.8-.846,1.643-1.75,2.553-2.74,15.406-16.764,11.44-29.57,7.238-43.129-3.536-11.409,2.649-18.7,17.6-32.629,6.482-6.037,13.184-12.278,18.365-19.778,2.267-3.283,9.165-13.268,4.9-23.166-4.184-9.7-14.817-11.336-23.362-12.645-3.373-.518-8.473-1.3-10.1-2.361-7.157-4.679-11.535-14.444-15.769-23.888-.842-1.88-1.674-3.735-2.517-5.536-1.5-3.212-3.006-7.1-4.6-11.217-4.208-10.892-8.977-23.237-17.1-31.842-7.3-7.734-21.054-11.458-33.192-14.744-4.082-1.1-7.936-2.148-10.476-3.086a11.554,11.554,0,0,0-6.646-.411c-5.906,1.385-9.593,2.91-12.329,5.1a14.361,14.361,0,0,0-4.118,5.539,132.215,132.215,0,0,1-13.641-8.3l-.223-.149a16.4,16.4,0,0,0-1.031-11.133c-6.461-13.668-27.909-12.6-32.14-12.238-2.4.2-5.445.309-8.661.422-5.052.179-10.638.379-16.163,1l.285-.792a29.573,29.573,0,0,1,27.77-19.539h6.575a11.566,11.566,0,1,0,0-23.132h-6.575a52.8,52.8,0,0,0-44.774,24.971L191.33,137.363,208.3,96.22l74.842-26.24a11.571,11.571,0,0,0,5.218-3.7l33.269-41.733c85.011,8.088,165.033,55.75,210.885,135.171a269.832,269.832,0,0,1,27.255,66.205l-4.9,4.372a30.892,30.892,0,0,0-10.293,22.474c0,.094,0,.186-.007.279l-7.989-21.968a28.916,28.916,0,0,0-5.208-8.936l-14.249-16.683a28.991,28.991,0,0,0-22.072-10.174H477.612a16.752,16.752,0,0,0-13.938,26.045l1.765,2.65a128.209,128.209,0,0,1-38.189,22.678l-23.908-45.8V190.643a11.568,11.568,0,0,0-3.579-8.366l-21.531-20.553a11.581,11.581,0,0,0-4.153-2.546L354.7,152.366a11.566,11.566,0,1,0-7.669,21.824l17.03,5.985,16.15,15.415V203.7a11.568,11.568,0,0,0,1.314,5.352l29.932,57.334a11.56,11.56,0,0,0,14.254,5.5l8.716-3.212A151.375,151.375,0,0,0,488.7,233.931a11.568,11.568,0,0,0,1.445-14.594l-.615-.923h5.522a5.886,5.886,0,0,1,4.483,2.066l14.249,16.683a5.874,5.874,0,0,1,1.057,1.814l15.725,43.241a11.564,11.564,0,0,0,19.046,4.224l7.486-7.485a36.119,36.119,0,0,0,9.562-17.39c11.576,92.773-24.8,188.743-101.691,249.092a11.566,11.566,0,1,0,14.282,18.2,296.1,296.1,0,0,0,73.3-380.705ZM54.692,327.054l47.694,36.264a11.555,11.555,0,0,0,4.783,2.145l28.746,5.617a12.851,12.851,0,0,1,9.746,16.618,35.753,35.753,0,0,0-.031,22.332l3.664,11.276a12.868,12.868,0,0,1-8.253,16.194l-11.494,3.734a11.563,11.563,0,0,0-7.785,8.824l-9.252,48.291a275.942,275.942,0,0,1-52.69-65.721A271.544,271.544,0,0,1,26.22,336.3Zm-30.2-48.89a11.767,11.767,0,0,0,.192,1.493A11.178,11.178,0,0,1,24.491,278.164ZM127.053,115.35a25.671,25.671,0,0,1-4.952,27.223L108.5,157.151a11.615,11.615,0,0,0-1.581,2.143l-30.9,53.944L48.554,232.873A11.567,11.567,0,0,0,45.726,248.8L56,263.862c-5.92.881-11.233,1.608-14.765,1.993-.679-.651-1.389-1.312-2.124-1.994-2.749-2.554-6.569-5.965-12.266-10.949a273.384,273.384,0,0,1,81.47-154.72A30.069,30.069,0,0,1,127.053,115.35Zm115.23,86.792c3.5-.124,6.814-.242,9.771-.489a31.444,31.444,0,0,1,4.926.021,11.569,11.569,0,0,0,5.321,14.391c2.17,1.161,5.19,3.174,8.387,5.306,9.041,6.026,19.288,12.857,28.913,13.47,8.755.568,13.625-4.421,15.712-6.546.167-.169.324-.338.49-.492a12.391,12.391,0,0,0,3.1-3.79c1.85.529,3.792,1.055,5.784,1.6,6.85,1.854,19.6,5.3,22.415,8.29,5,5.3,8.9,15.4,12.343,24.3,1.738,4.5,3.38,8.749,5.223,12.687.791,1.69,1.57,3.431,2.361,5.194,5.337,11.9,11.387,25.4,24.22,33.787,5.819,3.8,12.953,4.9,19.248,5.863.761.117,1.633.251,2.519.4-3.736,5.212-9.057,10.165-14.676,15.4-14.319,13.334-32.139,29.931-23.932,56.407,3.873,12.5,4.053,13.852-2.175,20.629-.849.924-1.64,1.766-2.382,2.555-5.335,5.678-9.549,10.165-13.037,21.154-1.013,3.191-2.326,4.67-4.71,7.354a51.609,51.609,0,0,0-6.471,8.569,37.485,37.485,0,0,0-4.186,12.288c-.686,3.418-1.075,5.133-2.416,6.782a67.429,67.429,0,0,1-14.6,12.912c-5.435,3.45-8.61,3.922-9.692,3.858-1.234-1.323-5.7-7.116-12.46-27.166-1.666-4.945-3.977-10.036-6.21-14.957-4.926-10.85-10.021-22.07-7.543-29.737q.439-1.357.866-2.652c3.958-12.064,7.694-23.457.773-40.044-2.108-5.051-5.463-8.742-8.421-12-1.914-2.106-4.083-4.494-4.417-5.868a25,25,0,0,1-.379-5.851c.039-6.044.1-15.176-8.979-23.678-12.8-11.982-27.726-8.291-37.6-5.847a72.536,72.536,0,0,1-8.442,1.758c-16.249,1.9-30.757-4.227-39.814-16.83-9.475-13.183-10.85-30.923-3.588-46.3,3.515-7.44,8.827-13.415,14.975-20.334,1.343-1.512,2.7-3.036,4.054-4.6,2.256-2.6,4.738-6.121,7.362-9.85,3.136-4.45,8.971-12.732,11.5-14.307C221.565,202.876,233.539,202.452,242.283,202.142Z" transform="translate(95.911 96.007)" fill="#fff"/><path d="M377.793,439.021c11.8-1.928,20.669-14.2,27.916-38.626l13.605-45.854a11.566,11.566,0,0,0,.09-6.257l-5.565-20.977a11.566,11.566,0,0,0-21.346-2.548c-1.268,2.335-2.409,4.811-3.513,7.205-1.857,4.026-3.775,8.191-5.773,10.489-1.122,1.291-4,2.682-6.791,4.026-6.659,3.213-15.78,7.615-19.263,18.721-2.163,6.889-1.356,12.34-.766,16.318.51,3.45.628,4.646-.3,6.818l-.116.27c-3.682,8.639-10.532,24.723-.927,38.4,6.853,9.758,14.06,12.267,19.659,12.267A18.772,18.772,0,0,0,377.793,439.021Zm-3.816-25.312c-2.209-3.149,1.093-10.9,3.279-16.035l.117-.271c3.526-8.275,2.583-14.63,1.9-19.271-.441-2.97-.6-4.247-.046-6,.453-1.442,3.164-2.842,7.247-4.813,1.81-.874,3.8-1.836,5.815-3l-8.752,29.5c-3.694,12.453-6.964,18.267-8.851,20.845C374.465,414.383,374.229,414.068,373.977,413.709Z" transform="translate(150.78 145.949)" fill="#fff"/><path d="M271.441,118.713a11.566,11.566,0,1,0-7.655,21.828l.78.273a11.566,11.566,0,1,0,7.656-21.828Z" transform="translate(136.033 114.507)" fill="#fff"/><g transform="translate(0)"><g transform="translate(235.909 147.059)"><path d="M605.428,74.764h35.679a15.314,15.314,0,0,0,0-30.628H574.237A15.315,15.315,0,0,0,558.92,59.453v66.869a15.314,15.314,0,0,0,30.628,0v-19c81.079,139.44,59.527,321.009-56.849,437.386a361.068,361.068,0,0,1-390.631,79.763,15.315,15.315,0,1,0-11.435,28.414A392.14,392.14,0,0,0,605.428,74.764Zm0,0" transform="translate(-121.033 -44.136)" fill="#fff"/></g><path d="M419.611-10.3" transform="translate(161.664 94.392)" fill="#fff" stroke="#d92360" stroke-width="1"/><path d="M14.069,457.239a15.315,15.315,0,0,0-15.317,15.31v21.8C-84.7,354.458-63.772,170.859,53.56,53.528A360.725,360.725,0,0,1,446.292-25.381a15.315,15.315,0,0,0,19.979-8.364A15.314,15.314,0,0,0,457.9-53.718,392.126,392.126,0,0,0-17.814,525.509H-54.205a15.316,15.316,0,0,0-15.317,15.317,15.315,15.315,0,0,0,15.317,15.311H14.063A15.314,15.314,0,0,0,29.38,540.826V472.549a15.313,15.313,0,0,0-15.311-15.31Zm0,0" transform="translate(82.917 83)" fill="#fff"/><path d="M256,496.8" transform="translate(136.026 173.856)" fill="#fff"/></g></g><path d="M271.441,118.713a11.566,11.566,0,1,0-7.655,21.828l.78.273a11.566,11.566,0,1,0,7.656-21.828Z" transform="translate(6820.944 412.67)" fill="#d92360"/><path d="M271.441,118.713a11.566,11.566,0,1,0-7.655,21.828l.78.273a11.566,11.566,0,1,0,7.656-21.828Z" transform="translate(6899.6 597.742)" fill="#d92360"/><path d="M271.441,118.713a11.566,11.566,0,1,0-7.655,21.828l.78.273a11.566,11.566,0,1,0,7.656-21.828Z" transform="translate(6676.356 307.41)" fill="#d92360"/><path d="M271.441,118.713a11.566,11.566,0,1,0-7.655,21.828l.78.273a11.566,11.566,0,1,0,7.656-21.828Z" transform="translate(7012.957 360.618)" fill="#d92360"/><path d="M271.441,118.713a11.566,11.566,0,1,0-7.655,21.828l.78.273a11.566,11.566,0,1,0,7.656-21.828Z" transform="translate(6687.923 559.571)" fill="#d92360"/></g></g></svg>