<svg xmlns="http://www.w3.org/2000/svg" xmlns:xlink="http://www.w3.org/1999/xlink" viewBox="0 0 98 98"><defs><style>.a{fill:#5d5d5d;}.b{fill:#fff;}.c{clip-path:url(#a);}</style><clipPath id="a"><path class="a" d="M0,60.9H85.235V-24.323H0Z" transform="translate(0 24.323)"/></clipPath></defs><g transform="translate(-4735 -16952)"><rect class="b" width="98" height="98" transform="translate(4735 16952)"/><g transform="translate(4742 16958)"><g class="c" transform="translate(0 0)"><g transform="translate(16.001 9.564)"><path class="a" d="M4.467,0a6.4,6.4,0,0,1,6.251,6.534,6.4,6.4,0,0,1-6.251,6.534A6.4,6.4,0,0,1-1.784,6.534,6.4,6.4,0,0,1,4.467,0" transform="translate(1.784)"/></g><g transform="translate(9.925 22.82)"><path class="a" d="M11.177,0,7.957,2.463,4.737,0C3.791.189-3.784,2.085-4.446,7.953a1.647,1.647,0,0,0,.662,1.517c1.419.946,4.923,2.838,11.741,2.838S18.279,10.417,19.7,9.471a1.639,1.639,0,0,0,.662-1.517C19.6,2.085,12.028.189,11.177,0" transform="translate(4.464)"/></g><g transform="translate(61.265 36.171)"><path class="a" d="M3.315,0A4.788,4.788,0,0,1,7.954,4.923,4.791,4.791,0,0,1,3.315,9.849,4.791,4.791,0,0,1-1.324,4.923,4.788,4.788,0,0,1,3.315,0" transform="translate(1.324)"/></g><g transform="translate(56.696 46.209)"><path class="a" d="M8.34,0,5.971,1.9,3.606,0C2.944.189-2.739,1.608-3.307,5.967A1.085,1.085,0,0,0-2.834,7.1c1.041.757,3.693,2.081,8.8,2.081S13.735,7.764,14.779,7.1a1.085,1.085,0,0,0,.473-1.135C14.685,1.514,9,.095,8.34,0" transform="translate(3.331)"/></g><g transform="translate(22.253 57.382)"><path class="a" d="M3.315,0A4.788,4.788,0,0,1,7.954,4.923,4.791,4.791,0,0,1,3.315,9.849,4.791,4.791,0,0,1-1.324,4.923,4.788,4.788,0,0,1,3.315,0" transform="translate(1.324)"/></g><g transform="translate(17.683 67.324)"><path class="a" d="M8.34,0,5.971,1.9,3.606,0C2.944.189-2.739,1.608-3.307,5.967A1.085,1.085,0,0,0-2.834,7.1c1.041.757,3.693,2.081,8.8,2.081S13.735,7.764,14.779,7.1a1.085,1.085,0,0,0,.473-1.135C14.685,1.608,9,.189,8.34,0" transform="translate(3.331)"/></g><g transform="translate(0 -0.001)"><path class="a" d="M60.762,52.17a6.065,6.065,0,0,0-7.1-4.355l-3.125-7.859a17.026,17.026,0,1,0-23.2-23.769l-9.092-4.923A22.361,22.361,0,0,0,20.519,1.51,21.2,21.2,0,0,0,19.384-5.4l9.562-2.554a6.142,6.142,0,0,0,6.061,2.649,6.088,6.088,0,0,0,5.112-6.909,6.093,6.093,0,0,0-6.909-5.115,6.125,6.125,0,0,0-5.115,6.818L18.343-7.863A22.252,22.252,0,0,0-1.922-20.837,22.389,22.389,0,0,0-24.269,1.51,22.387,22.387,0,0,0-1.922,23.856h.568L-.6,30.675A17.06,17.06,0,0,0-14.325,47.342,17.093,17.093,0,0,0,2.717,64.384,17.094,17.094,0,0,0,19.762,47.342a16.65,16.65,0,0,0-1.612-7.2l9.281-5.21A16.975,16.975,0,0,0,41.541,42.51a17.169,17.169,0,0,0,6.534-1.324L51.1,48.95a6.1,6.1,0,1,0,9.66,3.22M-21.049,1.51A19.133,19.133,0,0,1-1.922-17.617,19.194,19.194,0,0,1,17.2,1.51,19.194,19.194,0,0,1-1.922,20.636,19.133,19.133,0,0,1-21.049,1.51M2.717,61.164A13.837,13.837,0,0,1-11.106,47.342,13.9,13.9,0,0,1,2.717,33.516a13.824,13.824,0,1,1,0,27.648M16.826,37.871A16.984,16.984,0,0,0,2.717,30.3H2.054L1.3,23.667A22.668,22.668,0,0,0,16.921,13.632l9.187,4.923A16.692,16.692,0,0,0,26.2,32.665Zm10.984-12.4A13.826,13.826,0,1,1,41.636,39.294,13.843,13.843,0,0,1,27.81,25.468" transform="translate(24.269 20.837)"/></g></g></g></g></svg>