<svg xmlns="http://www.w3.org/2000/svg" xmlns:xlink="http://www.w3.org/1999/xlink" viewBox="0 0 98 98"><defs><style>.a{fill:#5d5d5d;}.b{fill:#fff;}.c{clip-path:url(#a);}</style><clipPath id="a"><path class="a" d="M0,62.355H82.715V-23.227H0Z" transform="translate(0 23.227)"/></clipPath></defs><g transform="translate(-4617 -16952)"><rect class="b" width="98" height="98" transform="translate(4617 16952)"/><g transform="translate(4625 16958)"><g class="c" transform="translate(0 0)"><g transform="translate(-0.002 0.001)"><path class="a" d="M59.746,44.009a11.7,11.7,0,0,0,.015-7.089L57.745,30.5A11.286,11.286,0,0,0,52.8,24.152a11.247,11.247,0,0,0-2.067-7.915L46.9,10.777a11.035,11.035,0,0,0-6.588-4.469c-.361-2.782-1.684-4.856-4.348-6.857L30.693-4.518A10.785,10.785,0,0,0,23.08-6.666,10.734,10.734,0,0,0,16.9-11.8l-6.2-2.085a10.751,10.751,0,0,0-7.9.4,11,11,0,0,0-7.395-2.907h-6.518A11.335,11.335,0,0,0-22.255-4.9V61.3a7.792,7.792,0,0,0,7.668,7.889H52.8A7.789,7.789,0,0,0,60.46,61.3V47.339a8.026,8.026,0,0,0-.715-3.331m-8.957-17.7a8.448,8.448,0,0,1,4.223,5.048l2.015,6.419a8.854,8.854,0,0,1,.391,3.272,7.484,7.484,0,0,0-4.62-1.6H3.688L44.595,25.825a7.989,7.989,0,0,1,6.194.483M39.108,8.994a8.16,8.16,0,0,1,5.446,3.427l3.832,5.461a8.551,8.551,0,0,1,1.625,5.063,10.762,10.762,0,0,0-6.323.166L-5.38,39.451H-5.42L33.021,10.516a7.981,7.981,0,0,1,6.087-1.522M22.524-3.689l.015,0c.114-.022.228-.044.343-.063a7.987,7.987,0,0,1,6.087,1.525l5.276,3.968a7.1,7.1,0,0,1,3.121,4.3A10.826,10.826,0,0,0,31.3,8.227L-10.018,39.322a1.2,1.2,0,0,0-.144.129h-.3L17.439-.328a8.186,8.186,0,0,1,5.085-3.36M3.08-10.4a1.432,1.432,0,0,0,.317-.181c.074-.041.147-.081.221-.118a7.935,7.935,0,0,1,6.172-.468l6.2,2.085a8.013,8.013,0,0,1,4.164,3.113,11.083,11.083,0,0,0-5.063,4L-13.961,39.451h-.807L-.623-5.638A8.472,8.472,0,0,1,3.08-10.4M-19.388-4.9a8.467,8.467,0,0,1,8.279-8.626h6.518A8.068,8.068,0,0,1,.243-11.89a11.363,11.363,0,0,0-3.6,5.4l-14.55,46.378a1.486,1.486,0,0,0-.063.376,7.426,7.426,0,0,0-1.419.932ZM57.6,61.3a4.919,4.919,0,0,1-4.8,5.022H-14.587a4.919,4.919,0,0,1-4.8-5.022V47.339a4.922,4.922,0,0,1,4.8-5.026H52.8a4.922,4.922,0,0,1,4.8,5.026Z" transform="translate(22.255 16.393)"/></g><g transform="translate(8.419 62.98)"><path class="a" d="M3.761.228A6.722,6.722,0,0,0-1.136,8.7a6.792,6.792,0,0,0,6.411,5.1,7.008,7.008,0,0,0,1.761-.228A6.448,6.448,0,0,0,11.83,8.894a7.687,7.687,0,0,0-1.96-7.31A5.96,5.96,0,0,0,3.761.228m5.3,7.933a3.563,3.563,0,0,1-2.734,2.631,3.8,3.8,0,0,1-4.7-2.863c-.483-1.728,0-4.06,2.966-4.959a4.133,4.133,0,0,1,1.186-.188,2.939,2.939,0,0,1,2.1.862A4.809,4.809,0,0,1,9.059,8.161" transform="translate(1.401 0.085)"/></g></g></g></g></svg>