<svg xmlns="http://www.w3.org/2000/svg" xmlns:xlink="http://www.w3.org/1999/xlink" viewBox="0 0 98 98"><defs><style>.a{fill:#5d5d5d;}.b{fill:#fff;}.c{clip-path:url(#a);}</style><clipPath id="a"><path class="a" d="M0,61.3H85.512V-24.209H0Z" transform="translate(0 24.209)"/></clipPath></defs><g transform="translate(-4886 -16952)"><rect class="b" width="98" height="98" transform="translate(4886 16952)"/><g class="c" transform="translate(4892 16958)"><g transform="translate(0.001 0.001)"><path class="a" d="M54.613,0a9.328,9.328,0,0,0-8.2,13.779L31.134,29.06A12.374,12.374,0,0,0,15.9,29.053L3.978,17.135a6.079,6.079,0,0,0,.89-3.144A6.23,6.23,0,0,0-1.359,7.774a6.226,6.226,0,0,0-6.217,6.217,6.226,6.226,0,0,0,6.217,6.217,6.138,6.138,0,0,0,3.144-.88L13.709,31.253a12.361,12.361,0,0,0,0,15.231L-5.983,66.176a9.267,9.267,0,0,0-6.256-2.43,9.336,9.336,0,0,0-9.329,9.329A9.334,9.334,0,0,0-12.238,82.4a9.342,9.342,0,0,0,9.332-9.322,9.259,9.259,0,0,0-1.13-4.447L15.9,48.678A12.3,12.3,0,0,0,21.968,51.2V67a9.325,9.325,0,1,0,3.108,0V51.2a12.3,12.3,0,0,0,6.065-2.518L43.059,60.6a6.138,6.138,0,0,0-.88,3.144A6.217,6.217,0,1,0,48.4,57.529a6.094,6.094,0,0,0-3.137.88L33.334,46.484a12.348,12.348,0,0,0,0-15.231L48.357,16.231A9.323,9.323,0,1,0,54.613,0" transform="translate(21.567)"/></g></g></g></svg>