<svg xmlns="http://www.w3.org/2000/svg" xmlns:xlink="http://www.w3.org/1999/xlink" viewBox="0 0 98 98"><defs><style>.a{fill:#5d5d5d;}.b{fill:#fff;}.c{clip-path:url(#a);}</style><clipPath id="a"><path class="a" d="M0,62.071H78.849v-85.3H0Z" transform="translate(0 23.227)"/></clipPath></defs><g transform="translate(-4381 -16952)"><rect class="b" width="98" height="98" transform="translate(4381 16952)"/><g transform="translate(4391 16958)"><g class="c" transform="translate(0 0)"><g transform="translate(16.727 4.681)"><path class="a" d="M2.414,6.464a1.607,1.607,0,0,0,2.9-1.392L2.154-1.509A1.61,1.61,0,0,0,.009-2.262,1.6,1.6,0,0,0-.744-.117Z" transform="translate(0.903 2.419)"/></g><g transform="translate(0.341 60.245)"><path class="a" d="M3.948.331-1.006,5.285a1.611,1.611,0,0,0,0,2.277,1.607,1.607,0,0,0,1.135.466,1.6,1.6,0,0,0,1.138-.47L6.221,2.6a1.607,1.607,0,0,0,0-2.273,1.649,1.649,0,0,0-2.273,0" transform="translate(1.477 0.124)"/></g><g transform="translate(0.341 16.904)"><path class="a" d="M3.948,5.6A1.606,1.606,0,0,0,6.221,3.33L1.267-1.627a1.614,1.614,0,0,0-2.273,0,1.607,1.607,0,0,0,0,2.273Z" transform="translate(1.477 2.095)"/></g><g transform="translate(70.339 16.903)"><path class="a" d="M1.168,5.944a1.612,1.612,0,0,0,1.138-.47L7.26.516A1.582,1.582,0,0,0,7.73-.619a1.582,1.582,0,0,0-.47-1.135,1.607,1.607,0,0,0-2.273,0L.033,3.2a1.609,1.609,0,0,0,0,2.273,1.6,1.6,0,0,0,1.135.47" transform="translate(0.437 2.224)"/></g><g transform="translate(37.819 0.002)"><path class="a" d="M1.168,7.012a1.61,1.61,0,0,0,1.608-1.6V-1.016A1.61,1.61,0,0,0,1.168-2.624a1.607,1.607,0,0,0-1.6,1.608V5.407a1.606,1.606,0,0,0,1.6,1.6" transform="translate(0.437 2.624)"/></g><g transform="translate(55.746 4.681)"><path class="a" d="M.665,7.012a1.574,1.574,0,0,0,.694.158A1.62,1.62,0,0,0,2.81,6.259L5.965-.322a1.6,1.6,0,0,0-.753-2.145,1.613,1.613,0,0,0-2.145.753L-.088,4.867a1.582,1.582,0,0,0-.07,1.227,1.6,1.6,0,0,0,.823.918" transform="translate(0.249 2.624)"/></g><g transform="translate(37.818 75.661)"><path class="a" d="M1.168,0a1.606,1.606,0,0,0-1.6,1.6V8.031a1.6,1.6,0,1,0,3.21,0V1.6A1.606,1.606,0,0,0,1.168,0" transform="translate(0.437 0)"/></g><g transform="translate(32.465 35.647)"><path class="a" d="M5.064,0a6.957,6.957,0,1,0,6.959,6.955A6.966,6.966,0,0,0,5.064,0M8.81,6.955A3.746,3.746,0,1,1,5.064,3.213,3.752,3.752,0,0,1,8.81,6.955" transform="translate(1.895)"/></g><g transform="translate(22.686 25.863)"><path class="a" d="M12.181,0A16.74,16.74,0,1,0,28.919,16.739,16.759,16.759,0,0,0,12.181,0M25.706,16.739A13.525,13.525,0,1,1,12.181,3.213,13.543,13.543,0,0,1,25.706,16.739" transform="translate(4.558)"/></g><g transform="translate(0 17.332)"><path class="a" d="M57.159,17.71A77.064,77.064,0,0,0,45.826,5.6,58.465,58.465,0,0,0,33.461-2.767a35.074,35.074,0,0,0-15.424-3.86A35.1,35.1,0,0,0,2.606-2.767,58.539,58.539,0,0,0-9.756,5.6,76.284,76.284,0,0,0-21.089,17.71a1.6,1.6,0,0,0,0,1.869A76.942,76.942,0,0,0-9.756,31.69,58.489,58.489,0,0,0,2.609,40.052a35.021,35.021,0,0,0,15.428,3.863,35.018,35.018,0,0,0,15.424-3.863A58.489,58.489,0,0,0,45.826,31.69,77.762,77.762,0,0,0,57.159,19.579a1.6,1.6,0,0,0,0-1.869m-3.323.933A77.371,77.371,0,0,1,43.685,29.3C37.655,34.5,28.312,40.7,18.037,40.7S-1.585,34.5-7.615,29.3A77.76,77.76,0,0,1-17.769,18.643,77.71,77.71,0,0,1-7.655,8.026C-1.618,2.807,7.74-3.414,18.037-3.414c10.275,0,19.618,6.2,25.648,11.406a77.9,77.9,0,0,1,10.15,10.65" transform="translate(21.389 6.627)"/></g><g transform="translate(16.727 70.825)"><path class="a" d="M3.973.114A1.612,1.612,0,0,0,1.829.867L-1.33,7.448A1.615,1.615,0,0,0-.573,9.6a1.634,1.634,0,0,0,.694.154A1.62,1.62,0,0,0,1.572,8.84L4.73,2.259A1.612,1.612,0,0,0,3.973.114" transform="translate(1.487 0.043)"/></g><g transform="translate(55.749 70.825)"><path class="a" d="M2.223.664a1.607,1.607,0,1,0-2.9,1.392L2.484,8.637a1.617,1.617,0,0,0,1.447.911,1.574,1.574,0,0,0,.694-.158,1.612,1.612,0,0,0,.757-2.145Z" transform="translate(0.832 0.248)"/></g><g transform="translate(70.336 60.245)"><path class="a" d="M2,.331a1.649,1.649,0,0,0-2.273,0,1.607,1.607,0,0,0,0,2.273L4.678,7.558A1.607,1.607,0,0,0,6.951,5.285Z" transform="translate(0.747 0.124)"/></g></g></g></g></svg>